<svg width="38" height="37" viewBox="0 0 38 37" fill="none" xmlns="http://www.w3.org/2000/svg">
<g id="&#240;&#159;&#166;&#134; icon &#34;help about&#34;">
<g id="Group">
<g id="Group_2">
<path id="Vector" opacity="0.08" d="M4.06199 36.8743C1.83037 36.8743 0 35.044 0 32.8123V4.06202C0 1.83039 1.83037 2.67029e-05 4.06199 2.67029e-05H33.2172C35.4489 2.67029e-05 37.2792 1.83039 37.2792 4.06202V32.8123C37.2792 35.044 35.4489 36.8743 33.2172 36.8743H4.06199Z" fill="url(#paint0_linear_9_1631)"/>
<path id="Vector_2" opacity="0.1" d="M4.06209 36.4694C2.04891 36.4694 0.405029 34.8255 0.405029 32.8123V4.06199C0.405029 2.04881 2.04891 0.404926 4.06209 0.404926H33.2173C35.2305 0.404926 36.8744 2.04881 36.8744 4.06199V32.8123C36.8744 34.8255 35.2305 36.4694 33.2173 36.4694H4.06209Z" fill="url(#paint1_linear_9_1631)"/>
<path id="Vector_3" opacity="0.2" d="M4.06198 36.0518C2.27657 36.0518 0.82251 34.5977 0.82251 32.8123V4.06197C0.82251 2.27656 2.27657 0.822498 4.06198 0.822498H33.2172C35.0026 0.822498 36.4567 2.27656 36.4567 4.06197V32.8123C36.4567 34.5977 35.0026 36.0518 33.2172 36.0518H4.06198Z" fill="url(#paint2_linear_9_1631)"/>
<path id="Vector_4" opacity="0.3" d="M33.2173 35.6469H4.06208C2.49661 35.6469 1.22754 34.3778 1.22754 32.8123V4.062C1.22754 2.49652 2.49661 1.22746 4.06208 1.22746H33.2173C34.7828 1.22746 36.0519 2.49652 36.0519 4.062V32.8123C36.0519 34.3778 34.7828 35.6469 33.2173 35.6469Z" fill="url(#paint3_linear_9_1631)"/>
</g>
<path id="Vector_5" opacity="0.45" d="M33.2172 35.2419H4.06193C2.7201 35.2419 1.63232 34.1542 1.63232 32.8123V3.65709C1.63232 2.31526 2.7201 1.22749 4.06193 1.22749H33.2172C34.559 1.22749 35.6468 2.31526 35.6468 3.65709V32.8123C35.6468 34.1542 34.559 35.2419 33.2172 35.2419Z" fill="url(#paint4_linear_9_1631)"/>
</g>
<path id="Vector_6" d="M33.2172 0.82251H4.06193C2.7201 0.82251 1.63232 1.91028 1.63232 3.25211V32.4074C1.63232 33.7492 2.7201 34.837 4.06193 34.837H33.2172C34.559 34.837 35.6468 33.7492 35.6468 32.4074V3.25211C35.6468 1.91028 34.559 0.82251 33.2172 0.82251Z" fill="url(#paint5_linear_9_1631)"/>
<g id="Clip path group">
<mask id="mask0_9_1631" style="mask-type:luminance" maskUnits="userSpaceOnUse" x="1" y="0" width="35" height="34">
<g id="u">
<path id="Vector_7" d="M33.2172 0.82251H4.06193C2.7201 0.82251 1.63232 1.91028 1.63232 3.25211V30.7876C1.63232 32.1295 2.7201 33.2172 4.06193 33.2172H33.2172C34.559 33.2172 35.6468 32.1295 35.6468 30.7876V3.25211C35.6468 1.91028 34.559 0.82251 33.2172 0.82251Z" fill="white"/>
</g>
</mask>
<g mask="url(#mask0_9_1631)">
<g id="Group_3">
<g id="Group_4" opacity="0.9">
<path id="Vector_8" opacity="0.05" d="M25.1186 41.0335C20.7022 41.9119 16.1053 41.8937 11.6987 40.9805L18.5393 17.0203L25.1186 41.0335Z" fill="url(#paint6_linear_9_1631)"/>
<path id="Vector_9" opacity="0.07" d="M23.9097 41.3252C20.2484 41.9127 16.4885 41.8924 12.8363 41.2655L18.5527 17.0924L23.9097 41.3252Z" fill="url(#paint7_linear_9_1631)"/>
<path id="Vector_10" opacity="0.1" d="M22.9924 41.4835C19.9159 41.89 16.7825 41.8709 13.7131 41.427L18.5566 17.116L22.9924 41.4835Z" fill="url(#paint8_linear_9_1631)"/>
<path id="Vector_11" opacity="0.1" d="M22.0427 41.5953C19.5318 41.8548 16.9918 41.8328 14.4876 41.5299L18.5566 17.116L22.0427 41.5953Z" fill="url(#paint9_linear_9_1631)"/>
</g>
<g id="Group_5">
<path id="Vector_12" opacity="0.2" d="M19.2233 18.704C16.449 20.6061 15.0635 15.0682 18.3662 15.1328C21.622 14.9576 21.3192 20.1805 18.2587 20.0418C15.9033 20.2219 14.4747 17.1484 15.9554 15.3772C17.4602 13.1651 21.2774 14.1273 21.6987 16.726C22.4178 19.4246 19.3556 21.9497 16.8248 20.8248C13.8962 19.8825 13.4927 15.5207 16.0032 13.8737C18.6524 11.7989 22.9731 14.0498 22.8352 17.405C23.0257 20.6339 19.3551 23.0989 16.417 21.8095C12.9145 20.6583 12.1927 15.5605 14.9999 13.2952C17.7154 10.7459 22.6907 12.213 23.6641 15.7879C24.8464 19.1716 22.1321 23.1509 18.5289 23.2161C14.8672 23.5612 11.5651 19.9961 12.204 16.3689C12.5606 12.6242 16.6895 9.98859 20.2479 11.1422C24.091 12.067 26.1585 16.7684 24.4499 20.2819C22.9134 24.1258 17.722 25.5259 14.3411 23.2518C10.4868 21.0103 9.94313 15.1671 13.0436 12.0672C16.2318 8.4836 22.6205 9.25806 25.0137 13.3588C27.6766 17.3936 25.567 23.4889 20.9726 25.0068C16.456 26.7853 10.8444 23.7137 10.0346 18.8943C8.94018 14.1369 12.6418 8.97742 17.5488 8.64622C22.4079 8.01711 27.2374 12.0556 27.333 16.9865C27.7215 21.8728 23.6105 26.5507 18.6803 26.653C13.6372 27.0523 8.80969 22.8083 8.70588 17.7194C8.29592 12.5185 12.6732 7.54068 17.9214 7.43541C23.2818 7.01199 28.4073 11.5308 28.5158 16.9342C28.9195 22.1817 24.747 27.2575 19.4985 27.7738C14.2585 28.5302 8.80453 24.8333 7.76294 19.6015C6.45257 14.2337 9.83413 8.19891 15.1957 6.70343C20.684 4.92571 27.2216 8.09295 29.0627 13.6002C31.1619 19.1348 28.2354 25.9882 22.6966 28.1645C17.0386 30.6474 9.74051 27.8297 7.32657 22.1129C4.63505 16.3761 7.347 8.82696 13.1388 6.20192C18.9474 3.29468 26.7468 5.89091 29.589 11.7506C32.7188 17.624 30.2486 25.6731 24.3288 28.7386C18.3984 32.0979 10.101 29.7641 6.80656 23.7918C3.21131 17.8121 5.39786 9.26774 11.4143 5.73863C17.3306 1.97359 25.9316 3.84865 29.7951 9.68567C33.9678 15.531 32.4661 24.412 26.714 28.6646C21.0603 33.1566 12.1243 32.1762 7.42428 26.7538C2.57309 21.5255 2.71312 12.7658 7.42866 7.50027C11.8587 2.2004 20.1148 1.04817 25.9913 4.54082C31.8316 7.72262 34.7323 15.0933 32.9114 21.4428C31.3503 27.865 25.1929 32.7534 18.576 32.7693C11.6361 33.0476 4.83499 28.1859 3.12106 21.405C1.01292 14.1127 4.88439 5.61445 11.9206 2.64163C19.1932 -0.720523 28.6778 2.31574 32.557 9.35114C36.7326 16.3693 34.5669 26.2648 27.8838 30.9396C21.3184 35.8501 11.2904 34.7418 5.79537 28.7192C0.27074 23.0293 -0.133368 13.4641 4.5082 7.12355C8.73261 0.93978 17.2335 -1.56141 24.2172 0.972363C31.1493 3.20243 36.1211 10.1822 35.9706 17.4619C36.0771 25.0977 30.7888 32.4928 23.3864 34.5669C15.2818 37.1096 5.6844 33.1417 1.95637 25.4576C-2.19728 17.5294 0.545786 6.83086 8.018 1.89577C15.3485 -3.27333 26.2434 -1.93444 32.2594 4.66037C38.2855 10.8853 38.8432 21.2713 33.9399 28.3198C29.5822 35.0203 20.7389 38.1119 13.1026 35.9351C5.43372 34.0344 -0.592388 27.0083 -1.19144 19.1131C-2.1175 10.5506 3.1443 1.69013 11.2911 -1.27508C20.0205 -4.74202 30.903 -1.11626 35.6713 7.01216C40.8388 15.2573 38.8286 27.0046 31.3309 33.1651C24.6386 38.9596 14.1706 39.426 6.82139 34.5783C-0.0882921 30.2941 -3.76913 21.6381 -2.281 13.6734C-1.06084 5.66964 5.18643 -1.2961 13.0707 -3.21494C21.8483 -5.56739 31.9162 -1.69408 36.6558 6.10638C41.692 13.9684 40.648 24.9826 34.4658 31.92C29.1182 38.1999 20.0147 40.6935 12.1484 38.3839C4.29678 36.301 -2.06706 29.52 -3.49627 21.5021C-5.3281 12.4491 -1.00608 2.46458 7.05262 -2.1454C15.4053 -7.18316 26.8852 -5.82185 33.9738 0.822515C40.392 6.57841 42.7571 16.1521 40.1533 24.3144C38.6527 29.2711 35.4587 33.7048 31.1592 36.6082" stroke="url(#paint10_radial_9_1631)" stroke-width="0.3553"/>
<path id="Vector_13" opacity="0.1" d="M17.526 18.3108C14.6421 16.9313 18.5417 13.1593 20.0579 15.9083C21.7493 18.5049 17.3067 20.7375 15.9665 18.1526C14.6991 16.2995 16.5498 13.6632 18.7112 14.0402C21.247 14.2276 22.2689 17.8267 20.3302 19.4083C18.4509 21.2825 14.9175 19.962 14.6407 17.3445C14.0246 14.4863 17.4229 12.0815 19.9714 13.3651C22.938 14.5597 23.1385 19.1855 20.3114 20.6664C17.7444 22.3576 13.9714 20.5077 13.6364 17.4768C12.9196 14.047 16.7724 11.0305 19.9708 12.2645C23.3594 13.288 24.5162 18.0802 22.0363 20.5801C19.8132 23.1612 15.2481 22.8181 13.4823 19.8834C11.4582 17.0336 12.8234 12.6216 16.1124 11.4239C19.3639 9.93789 23.4952 12.0838 24.2367 15.5608C25.3017 19.1634 22.4147 23.0991 18.7109 23.3624C14.817 23.9245 11.1978 20.3169 11.4629 16.4535C11.4763 12.2161 16.0272 8.99192 20.0519 10.0708C24.5164 10.9919 26.9149 16.6182 24.6769 20.5366C22.6215 24.6457 16.6022 25.8058 13.1697 22.7456C9.55961 19.8733 9.42114 13.795 13.003 10.8384C16.3985 7.6769 22.404 8.2718 25.0084 12.1532C27.8352 15.8536 26.8063 21.7476 22.7932 24.1694C18.9562 26.8112 13.1525 25.6505 10.7255 21.6412C8.0004 17.6801 9.19941 11.6901 13.3386 9.18643C17.4244 6.37759 23.6015 7.61491 26.182 11.8845C29.0777 16.0952 27.7941 22.4611 23.3983 25.1181C19.2712 27.944 13.1108 26.9218 10.1918 22.8472C7.07927 18.8939 7.53032 12.6481 11.3414 9.3047C15.1367 5.67544 21.7106 5.59098 25.4893 9.29327C29.5604 12.9657 30.0602 19.8516 26.4023 23.9839C22.8446 28.3417 15.8132 29.1897 11.39 25.6651C6.65773 22.1881 5.5089 14.8424 9.06702 10.139C12.5098 5.19756 20.0118 3.84235 24.9246 7.36193C30.0776 10.7613 31.647 18.4144 28.1748 23.5382C24.8278 28.9053 17.0291 30.697 11.693 27.2814C6.11006 23.9965 4.08803 16.0583 7.43806 10.5088C10.6513 4.70812 18.7228 2.44755 24.4864 5.72241C30.3967 8.8028 32.9405 16.7729 29.9722 22.7266C27.144 28.9387 19.1208 31.9229 12.8874 29.2093C6.50361 26.6905 3.0642 18.8698 5.29377 12.4247C7.29171 5.94741 14.5679 1.90012 21.1426 3.27913C27.6098 4.40684 32.4814 10.6546 32.3992 17.151C32.5557 23.47 27.8676 29.3599 21.7763 30.8784C15.7486 32.6454 8.79928 29.9004 5.64186 24.4618C2.11499 18.8821 2.88466 10.9741 7.65128 6.34116C12.6514 1.14078 21.4857 0.28891 27.2761 4.66752C33.4992 9.05563 35.5072 18.3048 31.56 24.8409C27.7679 31.6126 18.5941 34.5324 11.5708 31.2532C4.40935 28.183 0.556325 19.4026 2.90201 12.018C4.95994 4.76702 12.6406 -0.110908 20.0649 0.696397C27.1619 1.23485 33.26 7.04305 34.4932 13.9951C35.9518 20.7604 32.5696 28.1693 26.5065 31.5046C20.2724 35.2208 11.6729 34.3823 6.44818 29.2752C0.504115 23.813 -0.790649 14.0282 3.76224 7.30835C8.31383 0.122189 18.4228 -2.704 26.0354 1.10097C33.7733 4.67811 37.8485 14.2815 35.2793 22.3668C33.0195 30.2848 24.7362 35.6792 16.6048 34.9928C9.01917 34.5903 2.27233 28.7808 0.435321 21.4613C-1.64454 14.2461 1.27477 5.94746 7.48834 1.70262C14.0957 -3.12842 23.8888 -3.00811 30.2006 2.28817C37.2022 7.8255 39.3893 18.5054 34.965 26.2926C30.6343 34.4639 20.0104 38.3916 11.3771 35.148C3.42775 32.3934 -1.93045 23.9991 -1.43273 15.6466C-1.19006 7.92375 4.18521 0.780903 11.4478 -1.77909C18.6151 -4.57816 27.317 -2.74635 32.6429 2.83109C38.7501 8.93774 40.3463 19.0648 36.1783 26.6725C32.1006 34.5536 22.5392 38.9282 13.8916 37.1365C6.18175 35.7193 -0.196613 29.4115 -2.03362 21.8395C-4.05034 14.3874 -1.49322 5.92724 4.42685 0.940826C11.0075 -4.86882 21.2791 -6.05611 28.9028 -1.61395C37.0183 2.86689 41.3531 12.9625 39.2528 21.9542C37.5653 29.972 30.8094 36.468 22.8541 38.2036C18.0614 39.3238 12.8944 38.8019 8.46168 36.6428" stroke="url(#paint11_radial_9_1631)" stroke-width="0.3553"/>
</g>
<g id="Group_6" opacity="0.9">
<path id="Vector_14" opacity="0.2" d="M46.5715 5.19653C44.1737 17.5388 40.7774 30.1441 36.6562 41.9959L18.5405 17.0295L46.5715 5.19653Z" fill="url(#paint12_linear_9_1631)"/>
<path id="Vector_15" opacity="0.4" d="M45.9647 8.5884C43.841 18.7839 41.0578 29.0929 37.7677 38.9494L18.6201 17.0115L45.9647 8.5884Z" fill="url(#paint13_linear_9_1631)"/>
<path id="Vector_16" opacity="0.6" d="M45.4434 11.1458C43.5747 19.6905 41.2532 28.281 38.5683 36.5861L18.6458 17.0072L45.4434 11.1458Z" fill="url(#paint14_linear_9_1631)"/>
<path id="Vector_17" opacity="0.8" d="M44.8533 13.78C43.2584 20.7351 41.3702 27.6971 39.2369 34.4882L18.6458 17.0072L44.8533 13.78Z" fill="url(#paint15_linear_9_1631)"/>
</g>
<g id="Group_7" opacity="0.5">
<path id="Vector_18" opacity="0.05" d="M5.5245 37.9616C2.24278 35.922 -0.513728 33.1398 -2.52274 29.8393L18.5408 17.018L5.5245 37.9616Z" fill="url(#paint16_linear_9_1631)"/>
<path id="Vector_19" opacity="0.07" d="M4.58992 37.4395C1.96879 35.6492 -0.282054 33.3697 -2.03902 30.7261L18.4978 17.0771L4.58992 37.4395Z" fill="url(#paint17_linear_9_1631)"/>
<path id="Vector_20" opacity="0.1" d="M3.92506 36.9988C1.78415 35.4328 -0.0900712 33.5317 -1.62535 31.3686L18.4832 17.0961L3.92506 36.9988Z" fill="url(#paint18_linear_9_1631)"/>
<path id="Vector_21" opacity="0.1" d="M3.27386 36.5057C1.57762 35.1766 0.0629366 33.6308 -1.23149 31.9079L18.4832 17.0961L3.27386 36.5057Z" fill="url(#paint19_linear_9_1631)"/>
</g>
<g id="Group_8" opacity="0.8">
<path id="Vector_22" opacity="0.05" d="M9.63663 -10.2274C20.0201 -8.3545 30.5865 -5.50442 40.4838 -1.907L18.5515 17.0217L9.63663 -10.2274Z" fill="url(#paint20_linear_9_1631)"/>
<path id="Vector_23" opacity="0.07" d="M12.4924 -9.76421C21.064 -8.07567 29.7053 -5.73926 37.9419 -2.88322L18.5396 16.9437L12.4924 -9.76421Z" fill="url(#paint21_linear_9_1631)"/>
<path id="Vector_24" opacity="0.1" d="M14.6429 -9.35189C21.8231 -7.84884 29.0238 -5.89969 35.9675 -3.57958L18.5369 16.9186L14.6429 -9.35189Z" fill="url(#paint22_linear_9_1631)"/>
<path id="Vector_25" opacity="0.1" d="M16.8558 -8.87468C22.6972 -7.5782 28.5327 -5.99184 34.2131 -4.15613L18.5369 16.9186L16.8558 -8.87468Z" fill="url(#paint23_linear_9_1631)"/>
</g>
<g id="Group_9" opacity="0.9">
<path id="Vector_26" opacity="0.2" d="M-9.48558 28.8432C-7.0878 16.5009 -3.69141 3.89566 0.42971 -7.95615L18.5454 17.0102L-9.48558 28.8432Z" fill="url(#paint24_linear_9_1631)"/>
<path id="Vector_27" opacity="0.4" d="M-8.87876 25.4513C-6.75511 15.2558 -3.97184 4.94684 -0.681756 -4.90962L18.4658 17.0282L-8.87876 25.4513Z" fill="url(#paint25_linear_9_1631)"/>
<path id="Vector_28" opacity="0.6" d="M-8.35745 22.8939C-6.48877 14.3492 -4.16724 5.75873 -1.48235 -2.54634L18.4402 17.0325L-8.35745 22.8939Z" fill="url(#paint26_linear_9_1631)"/>
<path id="Vector_29" opacity="0.8" d="M-7.76738 20.2598C-6.17249 13.3047 -4.28426 6.34263 -2.15093 -0.448462L18.4402 17.0325L-7.76738 20.2598Z" fill="url(#paint27_linear_9_1631)"/>
</g>
</g>
</g>
</g>
<path id="Vector_30" opacity="0.1" d="M1.63232 29.9778V30.7877C1.63232 32.1337 2.71593 33.2173 4.06193 33.2173H33.2172C34.5632 33.2173 35.6468 32.1337 35.6468 30.7877V29.9778C35.6468 31.3238 34.5632 32.4074 33.2172 32.4074H4.06193C2.71593 32.4074 1.63232 31.3238 1.63232 29.9778Z" fill="url(#paint28_linear_9_1631)"/>
<g id="Group_10">
<path id="Vector_31" d="M1.63232 30.7877V32.4074C1.63232 33.7534 2.71593 34.837 4.06193 34.837H33.2172C34.5632 34.837 35.6468 33.7534 35.6468 32.4074V30.7877C35.6468 32.1337 34.5632 33.2173 33.2172 33.2173H4.06193C2.71593 33.2173 1.63232 32.1337 1.63232 30.7877Z" fill="url(#paint29_linear_9_1631)"/>
<path id="Vector_32" opacity="0.1" d="M1.63232 31.5975V32.4074C1.63232 33.7534 2.71593 34.837 4.06193 34.837H33.2172C34.5632 34.837 35.6468 33.7534 35.6468 32.4074V31.5975C35.6468 32.9435 34.5632 34.0271 33.2172 34.0271H4.06193C2.71593 34.0271 1.63232 32.9435 1.63232 31.5975Z" fill="black"/>
<path id="Vector_33" opacity="0.15" d="M1.63232 32.0024V32.4074C1.63232 33.7534 2.71593 34.837 4.06193 34.837H33.2172C34.5632 34.837 35.6468 33.7534 35.6468 32.4074V32.0024C35.6468 33.3484 34.5632 34.432 33.2172 34.432H4.06193C2.71593 34.432 1.63232 33.3484 1.63232 32.0024Z" fill="black"/>
</g>
<path id="Vector_34" opacity="0.8" d="M18.6396 8.10327C13.2722 8.10327 8.92114 11.6632 8.92114 16.0547C8.92114 18.852 10.6881 21.3096 13.357 22.7269C13.2555 23.4657 12.7933 25.2743 10.6053 25.8928C13.4392 26.2008 15.3213 24.8189 16.3204 23.7761C17.0636 23.9249 17.8403 24.0061 18.6396 24.0061C24.0069 24.0061 28.358 20.4462 28.358 16.0547C28.358 11.6632 24.0069 8.10327 18.6396 8.10327ZM19.4586 10.7537C19.8221 10.7538 20.1323 10.8796 20.3881 11.1219C20.6484 11.3642 20.7747 11.6551 20.7747 11.9962C20.7747 12.3372 20.6484 12.6281 20.3881 12.8704C20.1323 13.1083 19.8221 13.2294 19.4586 13.2294C19.0951 13.2294 18.7802 13.1083 18.5199 12.8704C18.2596 12.6281 18.1334 12.3372 18.1334 11.9962C18.1334 11.6551 18.2596 11.3642 18.5199 11.1219C18.7802 10.8796 19.0951 10.7538 19.4586 10.7537ZM18.2254 14.3429C18.7594 14.3429 19.1714 14.4784 19.4586 14.7387C19.7503 14.9945 19.8912 15.3289 19.8912 15.7418C19.8912 15.8271 19.886 15.9773 19.8636 16.1927C19.8456 16.4082 19.807 16.6022 19.7531 16.7817L19.2009 18.742C19.1561 18.8991 19.1172 19.0738 19.0813 19.2758C19.0454 19.4777 19.0261 19.6327 19.0261 19.7359C19.0261 19.9962 19.0843 20.1755 19.2009 20.2697C19.3176 20.3639 19.5211 20.4077 19.8083 20.4077C19.943 20.4077 20.098 20.3882 20.2685 20.3433C20.439 20.294 20.5603 20.2504 20.6366 20.2145L20.4894 20.8219C20.0451 20.9969 19.6866 21.1279 19.4218 21.2176C19.157 21.3119 18.8515 21.3557 18.5015 21.3557C17.963 21.3557 17.5414 21.2294 17.2407 20.9691C16.9445 20.7044 16.799 20.3699 16.799 19.966C16.799 19.8089 16.8133 19.649 16.8358 19.4874C16.8582 19.3214 16.8876 19.1325 16.937 18.9261L17.4892 16.9658C17.5385 16.7773 17.5774 16.5981 17.6088 16.432C17.6447 16.2615 17.664 16.111 17.664 15.9719C17.664 15.7206 17.6108 15.546 17.5076 15.4473C17.4044 15.3486 17.2103 15.2909 16.9186 15.2909C16.775 15.2909 16.6294 15.3196 16.4768 15.3645C16.3288 15.4094 16.198 15.4529 16.0903 15.4933L16.2376 14.8859C16.6011 14.7378 16.9546 14.6118 17.2867 14.5086C17.6188 14.4009 17.9292 14.3429 18.2254 14.3429Z" fill="url(#paint30_linear_9_1631)"/>
<path id="Vector_35" opacity="0.6" d="M19.4621 10.756C19.0986 10.7561 18.7859 10.8807 18.5257 11.123C18.2654 11.3654 18.1334 11.6551 18.1334 11.9962C18.1334 12.0681 18.1474 12.1311 18.1587 12.1986C18.201 11.9462 18.3203 11.7192 18.5257 11.5279C18.7859 11.2856 19.0986 11.161 19.4621 11.161C19.8256 11.161 20.13 11.2856 20.3858 11.5279C20.5912 11.7192 20.7105 11.9462 20.7528 12.1986C20.7641 12.1311 20.7781 12.0681 20.7781 11.9962C20.7781 11.6551 20.6461 11.3654 20.3858 11.123C20.13 10.8807 19.8256 10.7561 19.4621 10.756ZM18.222 14.3372C17.9258 14.3372 17.6176 14.4066 17.2856 14.5143C16.9535 14.6176 16.5988 14.7332 16.2353 14.8813L16.0961 15.4887C16.1251 15.4778 16.165 15.4621 16.1973 15.4507L16.2353 15.2862C16.5988 15.1382 16.9535 15.0225 17.2856 14.9193C17.6176 14.8116 17.9258 14.7421 18.222 14.7421C18.756 14.7421 19.1749 14.8868 19.4621 15.147C19.7157 15.3695 19.8476 15.6536 19.8797 15.9949C19.8849 15.9074 19.8923 15.7891 19.8923 15.7418C19.8923 15.3289 19.7538 14.9979 19.4621 14.7421C19.1749 14.4818 18.756 14.3372 18.222 14.3372ZM17.6525 16.1973C17.6433 16.2703 17.6316 16.3567 17.6146 16.4378C17.5832 16.6038 17.5374 16.7808 17.488 16.9692L16.9312 18.9306C16.8819 19.1371 16.8524 19.3214 16.83 19.4874C16.8076 19.649 16.8047 19.8112 16.8047 19.9683C16.8047 20.021 16.8124 20.0698 16.8174 20.1201C16.8237 20.0445 16.8194 19.9689 16.83 19.8924C16.8524 19.7263 16.8819 19.542 16.9312 19.3356L17.488 17.3742C17.5374 17.1857 17.5832 17.0088 17.6146 16.8427C17.6505 16.6722 17.6652 16.5136 17.6652 16.3745C17.6652 16.3117 17.6591 16.2506 17.6525 16.1973ZM8.9338 16.21C8.93069 16.2926 8.92114 16.3799 8.92114 16.4631C8.92114 19.2342 10.6596 21.6706 13.2868 23.0939C13.3179 22.9579 13.3488 22.8284 13.3628 22.7269C10.7427 21.3355 8.99708 18.9436 8.9338 16.21ZM28.358 16.2606C28.2251 20.5573 23.9231 24.005 18.6396 24.005C17.8403 24.005 17.067 23.9261 16.3238 23.7772C15.434 24.706 13.8418 25.8951 11.5026 25.9284C11.2409 26.0734 10.9439 26.1993 10.6041 26.2954C13.4381 26.6034 15.3247 25.225 16.3238 24.1821C17.067 24.331 17.8403 24.4099 18.6396 24.4099C24.0069 24.4099 28.358 20.8545 28.358 16.4631C28.358 16.3966 28.36 16.3267 28.358 16.2606ZM19.0445 19.9809C19.0399 20.0296 19.0318 20.1093 19.0318 20.1454C19.0318 20.4057 19.0797 20.5827 19.1963 20.6769C19.313 20.7712 19.5165 20.8161 19.8037 20.8161C19.9384 20.8161 20.1014 20.7977 20.2719 20.7529C20.3904 20.7186 20.4527 20.6797 20.525 20.6516L20.6389 20.2087C20.5626 20.2446 20.4425 20.2986 20.2719 20.3479C20.1014 20.3928 19.9384 20.4112 19.8037 20.4112C19.5165 20.4112 19.313 20.3662 19.1963 20.272C19.1208 20.211 19.0711 20.112 19.0445 19.9809Z" fill="white"/>
<g id="Clip path group_2">
<mask id="mask1_9_1631" style="mask-type:luminance" maskUnits="userSpaceOnUse" x="8" y="8" width="21" height="18">
<g id="w">
<path id="Vector_36" d="M18.6396 8.10327C13.2722 8.10327 8.92114 11.6632 8.92114 16.0547C8.92114 18.852 10.6881 21.3096 13.357 22.7269C13.2555 23.4657 12.7933 25.2743 10.6053 25.8928C13.4392 26.2008 15.3213 24.8189 16.3204 23.7761C17.0636 23.9249 17.8403 24.0061 18.6396 24.0061C24.0069 24.0061 28.358 20.4462 28.358 16.0547C28.358 11.6632 24.0069 8.10327 18.6396 8.10327ZM19.4586 10.7537C19.8221 10.7538 20.1323 10.8796 20.3881 11.1219C20.6484 11.3642 20.7747 11.6551 20.7747 11.9962C20.7747 12.3372 20.6484 12.6281 20.3881 12.8704C20.1323 13.1083 19.8221 13.2294 19.4586 13.2294C19.0951 13.2294 18.7802 13.1083 18.5199 12.8704C18.2596 12.6281 18.1334 12.3372 18.1334 11.9962C18.1334 11.6551 18.2596 11.3642 18.5199 11.1219C18.7802 10.8796 19.0951 10.7538 19.4586 10.7537ZM18.2254 14.3429C18.7594 14.3429 19.1714 14.4784 19.4586 14.7387C19.7503 14.9945 19.8912 15.3289 19.8912 15.7418C19.8912 15.8271 19.886 15.9773 19.8636 16.1927C19.8456 16.4082 19.807 16.6022 19.7531 16.7817L19.2009 18.742C19.1561 18.8991 19.1172 19.0738 19.0813 19.2758C19.0454 19.4777 19.0261 19.6327 19.0261 19.7359C19.0261 19.9962 19.0843 20.1755 19.2009 20.2697C19.3176 20.3639 19.5211 20.4077 19.8083 20.4077C19.943 20.4077 20.098 20.3882 20.2685 20.3433C20.439 20.294 20.5603 20.2504 20.6366 20.2145L20.4894 20.8219C20.0451 20.9969 19.6866 21.1279 19.4218 21.2176C19.157 21.3119 18.8515 21.3557 18.5015 21.3557C17.963 21.3557 17.5414 21.2294 17.2407 20.9691C16.9445 20.7044 16.799 20.3699 16.799 19.966C16.799 19.8089 16.8133 19.649 16.8358 19.4874C16.8582 19.3214 16.8876 19.1325 16.937 18.9261L17.4892 16.9658C17.5385 16.7773 17.5774 16.5981 17.6088 16.432C17.6447 16.2615 17.664 16.111 17.664 15.9719C17.664 15.7206 17.6108 15.546 17.5076 15.4473C17.4044 15.3486 17.2103 15.2909 16.9186 15.2909C16.775 15.2909 16.6294 15.3196 16.4768 15.3645C16.3288 15.4094 16.198 15.4529 16.0903 15.4933L16.2376 14.8859C16.6011 14.7378 16.9546 14.6118 17.2867 14.5086C17.6188 14.4009 17.9292 14.3429 18.2254 14.3429Z" fill="white"/>
</g>
</mask>
<g mask="url(#mask1_9_1631)">
<path id="Vector_37" opacity="0.4" d="M18.6393 8.50824C13.272 8.50824 8.9209 12.0682 8.9209 16.4597C8.9209 19.2569 10.6878 21.7145 13.3568 23.1319C13.2553 23.8707 12.7931 25.6792 10.6051 26.2977C13.439 26.6057 15.321 25.2239 16.3201 24.181C17.0633 24.3299 17.8401 24.4111 18.6393 24.4111C24.0066 24.4111 28.3577 20.8511 28.3577 16.4597C28.3577 12.0682 24.0066 8.50824 18.6393 8.50824ZM19.4584 11.1587C19.8219 11.1587 20.1321 11.2845 20.3879 11.5268C20.6482 11.7692 20.7744 12.0601 20.7744 12.4011C20.7744 12.7422 20.6482 13.0331 20.3879 13.2754C20.1321 13.5133 19.8219 13.6343 19.4584 13.6343C19.0949 13.6343 18.78 13.5133 18.5197 13.2754C18.2594 13.0331 18.1331 12.7422 18.1331 12.4011C18.1331 12.0601 18.2594 11.7692 18.5197 11.5268C18.78 11.2845 19.0949 11.1587 19.4584 11.1587ZM18.2252 14.7479C18.7592 14.7479 19.1712 14.8834 19.4584 15.1436C19.7501 15.3994 19.8909 15.7339 19.8909 16.1468C19.8909 16.232 19.8858 16.3823 19.8633 16.5977C19.8454 16.8131 19.8067 17.0072 19.7529 17.1867L19.2007 19.147C19.1558 19.304 19.117 19.4788 19.0811 19.6807C19.0452 19.8827 19.0258 20.0377 19.0258 20.1409C19.0258 20.4012 19.084 20.5804 19.2007 20.6747C19.3174 20.7689 19.5209 20.8127 19.8081 20.8127C19.9427 20.8127 20.0977 20.7932 20.2683 20.7483C20.4388 20.6989 20.5601 20.6554 20.6364 20.6194L20.4891 21.2268C20.0449 21.4019 19.6863 21.5328 19.4216 21.6226C19.1568 21.7168 18.8513 21.7606 18.5013 21.7606C17.9628 21.7606 17.5411 21.6344 17.2405 21.3741C16.9443 21.1093 16.7987 20.7748 16.7987 20.371C16.7987 20.2139 16.8131 20.054 16.8355 19.8924C16.858 19.7264 16.8874 19.5375 16.9368 19.331L17.4889 17.3708C17.5383 17.1823 17.5772 17.003 17.6086 16.837C17.6445 16.6665 17.6638 16.516 17.6638 16.3768C17.6638 16.1255 17.6106 15.951 17.5073 15.8523C17.4041 15.7535 17.21 15.6958 16.9183 15.6958C16.7747 15.6958 16.6292 15.7246 16.4766 15.7694C16.3285 15.8143 16.1978 15.8579 16.0901 15.8983L16.2373 15.2909C16.6008 15.1428 16.9544 15.0168 17.2865 14.9136C17.6185 14.8059 17.929 14.7479 18.2252 14.7479Z" stroke="black" stroke-width="0.809868"/>
</g>
</g>
</g>
<defs>
<linearGradient id="paint0_linear_9_1631" x1="12.1105" y1="35.5929" x2="12.1105" y2="1.12971" gradientUnits="userSpaceOnUse">
<stop/>
<stop offset="1" stop-opacity="0.588235"/>
</linearGradient>
<linearGradient id="paint1_linear_9_1631" x1="12.1106" y1="35.5929" x2="12.1106" y2="1.12968" gradientUnits="userSpaceOnUse">
<stop/>
<stop offset="1" stop-opacity="0.588235"/>
</linearGradient>
<linearGradient id="paint2_linear_9_1631" x1="12.1105" y1="35.5929" x2="12.1105" y2="1.12966" gradientUnits="userSpaceOnUse">
<stop/>
<stop offset="1" stop-opacity="0.588235"/>
</linearGradient>
<linearGradient id="paint3_linear_9_1631" x1="12.1106" y1="35.5929" x2="12.1106" y2="1.12969" gradientUnits="userSpaceOnUse">
<stop/>
<stop offset="1" stop-opacity="0.588235"/>
</linearGradient>
<linearGradient id="paint4_linear_9_1631" x1="12.2623" y1="35.1886" x2="12.2623" y2="1.13086" gradientUnits="userSpaceOnUse">
<stop/>
<stop offset="1" stop-opacity="0.588235"/>
</linearGradient>
<linearGradient id="paint5_linear_9_1631" x1="18.6396" y1="34.837" x2="18.6396" y2="0.817536" gradientUnits="userSpaceOnUse">
<stop stop-color="#8C8C8C"/>
<stop offset="1" stop-color="#DCDCDC"/>
</linearGradient>
<linearGradient id="paint6_linear_9_1631" x1="18.5428" y1="17.1167" x2="18.5428" y2="49.5114" gradientUnits="userSpaceOnUse">
<stop/>
<stop offset="1" stop-opacity="0"/>
</linearGradient>
<linearGradient id="paint7_linear_9_1631" x1="18.5429" y1="17.1167" x2="18.5429" y2="49.5114" gradientUnits="userSpaceOnUse">
<stop/>
<stop offset="1" stop-opacity="0"/>
</linearGradient>
<linearGradient id="paint8_linear_9_1631" x1="18.543" y1="17.1167" x2="18.543" y2="49.5114" gradientUnits="userSpaceOnUse">
<stop/>
<stop offset="1" stop-opacity="0"/>
</linearGradient>
<linearGradient id="paint9_linear_9_1631" x1="18.543" y1="17.1167" x2="18.543" y2="49.5114" gradientUnits="userSpaceOnUse">
<stop/>
<stop offset="1" stop-opacity="0"/>
</linearGradient>
<radialGradient id="paint10_radial_9_1631" cx="0" cy="0" r="1" gradientUnits="userSpaceOnUse" gradientTransform="translate(18.6401 17.0199) scale(22.7392 22.3972)">
<stop stop-color="white" stop-opacity="0"/>
<stop offset="1" stop-color="white"/>
</radialGradient>
<radialGradient id="paint11_radial_9_1631" cx="0" cy="0" r="1" gradientUnits="userSpaceOnUse" gradientTransform="translate(18.5325 17.2343) scale(21.4321 21.7281)">
<stop stop-opacity="0"/>
<stop offset="1"/>
</radialGradient>
<linearGradient id="paint12_linear_9_1631" x1="18.6363" y1="17.045" x2="49.9272" y2="25.4293" gradientUnits="userSpaceOnUse">
<stop stop-color="white"/>
<stop offset="1" stop-color="white" stop-opacity="0"/>
</linearGradient>
<linearGradient id="paint13_linear_9_1631" x1="18.6363" y1="17.0449" x2="49.9272" y2="25.4293" gradientUnits="userSpaceOnUse">
<stop stop-color="white"/>
<stop offset="1" stop-color="white" stop-opacity="0"/>
</linearGradient>
<linearGradient id="paint14_linear_9_1631" x1="18.6364" y1="17.0449" x2="49.9273" y2="25.4293" gradientUnits="userSpaceOnUse">
<stop stop-color="white"/>
<stop offset="1" stop-color="white" stop-opacity="0"/>
</linearGradient>
<linearGradient id="paint15_linear_9_1631" x1="18.6364" y1="17.0449" x2="49.9273" y2="25.4293" gradientUnits="userSpaceOnUse">
<stop stop-color="white"/>
<stop offset="1" stop-color="white" stop-opacity="0"/>
</linearGradient>
<linearGradient id="paint16_linear_9_1631" x1="18.4747" y1="17.0883" x2="-4.43186" y2="39.9948" gradientUnits="userSpaceOnUse">
<stop/>
<stop offset="1" stop-opacity="0"/>
</linearGradient>
<linearGradient id="paint17_linear_9_1631" x1="18.4747" y1="17.0883" x2="-4.43184" y2="39.9948" gradientUnits="userSpaceOnUse">
<stop/>
<stop offset="1" stop-opacity="0"/>
</linearGradient>
<linearGradient id="paint18_linear_9_1631" x1="18.4744" y1="17.0883" x2="-4.43211" y2="39.9948" gradientUnits="userSpaceOnUse">
<stop/>
<stop offset="1" stop-opacity="0"/>
</linearGradient>
<linearGradient id="paint19_linear_9_1631" x1="18.4744" y1="17.0883" x2="-4.43211" y2="39.9948" gradientUnits="userSpaceOnUse">
<stop/>
<stop offset="1" stop-opacity="0"/>
</linearGradient>
<linearGradient id="paint20_linear_9_1631" x1="18.5685" y1="16.9263" x2="26.9528" y2="-14.3645" gradientUnits="userSpaceOnUse">
<stop/>
<stop offset="1" stop-opacity="0"/>
</linearGradient>
<linearGradient id="paint21_linear_9_1631" x1="18.5685" y1="16.9264" x2="26.9529" y2="-14.3645" gradientUnits="userSpaceOnUse">
<stop/>
<stop offset="1" stop-opacity="0"/>
</linearGradient>
<linearGradient id="paint22_linear_9_1631" x1="18.5685" y1="16.9263" x2="26.9529" y2="-14.3646" gradientUnits="userSpaceOnUse">
<stop/>
<stop offset="1" stop-opacity="0"/>
</linearGradient>
<linearGradient id="paint23_linear_9_1631" x1="18.5685" y1="16.9263" x2="26.9529" y2="-14.3646" gradientUnits="userSpaceOnUse">
<stop/>
<stop offset="1" stop-opacity="0"/>
</linearGradient>
<linearGradient id="paint24_linear_9_1631" x1="18.4497" y1="16.9948" x2="-12.8412" y2="8.61041" gradientUnits="userSpaceOnUse">
<stop stop-color="white"/>
<stop offset="1" stop-color="white" stop-opacity="0"/>
</linearGradient>
<linearGradient id="paint25_linear_9_1631" x1="18.4496" y1="16.9948" x2="-12.8413" y2="8.61045" gradientUnits="userSpaceOnUse">
<stop stop-color="white"/>
<stop offset="1" stop-color="white" stop-opacity="0"/>
</linearGradient>
<linearGradient id="paint26_linear_9_1631" x1="18.4496" y1="16.9948" x2="-12.8413" y2="8.61043" gradientUnits="userSpaceOnUse">
<stop stop-color="white"/>
<stop offset="1" stop-color="white" stop-opacity="0"/>
</linearGradient>
<linearGradient id="paint27_linear_9_1631" x1="18.4496" y1="16.9948" x2="-12.8413" y2="8.61043" gradientUnits="userSpaceOnUse">
<stop stop-color="white"/>
<stop offset="1" stop-color="white" stop-opacity="0"/>
</linearGradient>
<linearGradient id="paint28_linear_9_1631" x1="18.6396" y1="31.5975" x2="44.6054" y2="31.7816" gradientUnits="userSpaceOnUse">
<stop stop-color="white"/>
<stop offset="1" stop-color="white" stop-opacity="0"/>
</linearGradient>
<linearGradient id="paint29_linear_9_1631" x1="35.6468" y1="34.0271" x2="18.6396" y2="34.0271" gradientUnits="userSpaceOnUse">
<stop stop-opacity="0.588235"/>
<stop offset="0.117804" stop-opacity="0.470588"/>
<stop offset="0.238095" stop-opacity="0.392157"/>
<stop offset="1" stop-opacity="0.313726"/>
</linearGradient>
<linearGradient id="paint30_linear_9_1631" x1="15.805" y1="7.89474" x2="15.805" y2="27.3316" gradientUnits="userSpaceOnUse">
<stop stop-color="#1E1E1E"/>
<stop offset="1" stop-color="#505050"/>
</linearGradient>
</defs>
</svg>
