<svg width="51" height="51" viewBox="0 0 51 51" fill="none" xmlns="http://www.w3.org/2000/svg">
<g id="Emoji">
<path id="Vector" d="M25.8806 2.35252L8.08767 15.2913C6.30111 16.5905 5.90594 19.0924 7.20512 20.8789L21.3202 40.2893L19.7027 41.4656C17.9161 42.7648 17.5209 45.2666 18.8201 47.0532C20.1193 48.8398 22.6211 49.2349 24.4077 47.9357L43.8181 33.8207C45.6047 32.5215 45.9999 30.0196 44.7007 28.2331L30.5856 8.82265C32.3721 7.52348 32.7673 5.02164 31.4681 3.23507C30.169 1.4485 27.6671 1.05334 25.8806 2.35252Z" fill="#FFD983"/>
<path id="Vector_2" d="M12.3514 24.5553L31.7618 10.4402L30.5856 8.82265L12.7927 21.7615L10.587 22.129L12.3514 24.5553Z" fill="#E39F3D"/>
<path id="Vector_3" d="M8.08767 15.2913C6.30111 16.5905 5.90594 19.0924 7.20512 20.8789L21.6466 40.7382C20.9671 40.807 20.2947 41.0351 19.7027 41.4656C17.9161 42.7648 17.5209 45.2666 18.8201 47.0532C20.1193 48.8398 22.6211 49.2349 24.4077 47.9357C26.1943 46.6366 26.5894 44.1347 25.2903 42.3482L10.8488 22.4889C11.5282 22.4201 12.2007 22.192 12.7927 21.7615C14.5793 20.4623 14.9744 17.9605 13.6753 16.1739C12.3761 14.3873 9.87424 13.9922 8.08767 15.2913Z" fill="#FFE8B6"/>
<path id="Vector_4" d="M12.0578 17.3502C12.707 18.243 12.5094 19.4947 11.6165 20.144C10.7236 20.7932 9.47198 20.5956 8.82268 19.7027C8.17339 18.8098 8.37108 17.5582 9.26396 16.9089C10.1568 16.2596 11.4085 16.4573 12.0578 17.3502ZM23.6728 43.5244C24.3221 44.4173 24.1244 45.6689 23.2315 46.3182C22.3386 46.9675 21.087 46.7698 20.4377 45.8769C19.7884 44.9841 19.9861 43.7324 20.879 43.0831C21.7718 42.4338 23.0235 42.6315 23.6728 43.5244ZM33.085 15.6603C33.4096 16.1067 33.3116 16.7319 32.8643 17.0572L18.3065 27.6435C17.8601 27.9681 17.2343 27.8693 16.9096 27.4229C16.585 26.9764 16.6838 26.3506 17.1303 26.026L31.6881 15.4396C32.1353 15.1144 32.7603 15.2138 33.085 15.6603ZM35.4375 18.8954C35.7627 19.3426 35.6641 19.967 35.2169 20.2922L20.659 30.8786C20.2126 31.2032 19.5874 31.1052 19.2622 30.6579C18.9369 30.2107 19.0363 29.5857 19.4828 29.261L34.0406 18.6747C34.4878 18.3495 35.1123 18.4481 35.4375 18.8954ZM37.79 22.1304C38.1152 22.5777 38.0166 23.2021 37.5694 23.5273L23.0116 34.1136C22.5651 34.4383 21.9399 34.3402 21.6147 33.893C21.2894 33.4457 21.3889 32.8207 21.8353 32.4961L36.3931 21.9098C36.8404 21.5845 37.4648 21.6832 37.79 22.1304ZM40.1425 25.3655C40.4678 25.8127 40.3691 26.4372 39.9219 26.7624L25.3641 37.3487C24.9176 37.6734 24.2924 37.5753 23.9672 37.1281C23.6419 36.6808 23.7414 36.0558 24.1878 35.7312L38.7456 25.1449C39.1929 24.8196 39.8173 24.9182 40.1425 25.3655Z" fill="#C1694F"/>
</g>
</svg>
