<svg width="36" height="28" viewBox="0 0 36 28" fill="none" xmlns="http://www.w3.org/2000/svg">
<g id="Emoji">
<path id="Vector" d="M36 7.5C36 4.462 33 0 18 0C3 0 0 4.462 0 7.5C0 7.545 0.019 7.576 0.022 7.619C0.01 7.815 0 8.021 0 8.25C0 10.873 2.239 12 5 12C7.761 12 10 10.873 10 8.25C10 8.032 9.979 7.838 9.949 7.653C12.374 7.302 15.102 7 18 7C20.898 7 23.626 7.302 26.051 7.653C26.021 7.838 26 8.032 26 8.25C26 10.873 28.238 12 31 12C33.762 12 36 10.873 36 8.25C36 8.025 35.991 7.821 35.976 7.629C35.98 7.583 36 7.549 36 7.5Z" fill="#BE1931"/>
<path id="Vector_2" d="M34.934 19C34.452 17.969 32.624 14.81 30.966 11.993C29.408 9.346 27 7 25 7V5C25 3.896 24.104 3 23 3C21.896 3 21 3.896 21 5V7H15V5C15 3.896 14.104 3 13 3C11.896 3 11 3.896 11 5V7C9 7 6.59 9.351 5.03 12C3.373 14.815 1.547 17.97 1.066 19C0.488 20.239 0 21 0 23C0 25 1.791 28 4 28H32C34.209 28 36 25 36 23C36 21 35.552 20.324 34.934 19Z" fill="#DD2E44"/>
<path id="Vector_3" d="M20.046 10.818C20.046 11.27 19.13 11.636 18 11.636C16.87 11.636 15.955 11.27 15.955 10.818C15.955 10.366 16.87 10 18 10C19.13 10 20.046 10.366 20.046 10.818ZM15.136 10.818C15.136 11.27 14.221 11.636 13.091 11.636C11.961 11.636 11.046 11.27 11.046 10.818C11.046 10.366 11.962 10 13.091 10C14.22 10 15.136 10.366 15.136 10.818ZM24.954 10.818C24.954 11.27 24.039 11.636 22.909 11.636C21.779 11.636 20.863 11.27 20.863 10.818C20.863 10.366 21.779 10 22.909 10C24.039 10 24.954 10.366 24.954 10.818ZM20.454 13.682C20.454 14.361 19.355 14.91 18 14.91C16.645 14.91 15.545 14.361 15.545 13.682C15.545 13.005 16.644 12.455 18 12.455C19.356 12.455 20.454 13.004 20.454 13.682ZM26.182 13.682C26.182 14.361 25.082 14.91 23.728 14.91C22.373 14.91 21.273 14.361 21.273 13.682C21.273 13.005 22.373 12.455 23.728 12.455C25.082 12.455 26.182 13.004 26.182 13.682ZM14.727 13.682C14.727 14.361 13.628 14.91 12.273 14.91C10.918 14.91 9.81801 14.361 9.81801 13.682C9.81801 13.005 10.917 12.455 12.273 12.455C13.628 12.455 14.727 13.004 14.727 13.682ZM21.272 17.363C21.272 18.269 19.807 19 18 19C16.193 19 14.727 18.269 14.727 17.363C14.727 16.46 16.193 15.727 18 15.727C19.807 15.728 21.272 16.46 21.272 17.363ZM28.637 17.363C28.637 18.268 27.17 19 25.364 19C23.557 19 22.091 18.269 22.091 17.363C22.091 16.46 23.557 15.727 25.364 15.727C27.17 15.728 28.637 16.46 28.637 17.363ZM13.909 17.363C13.909 18.268 12.443 19 10.636 19C8.82901 19 7.36401 18.269 7.36401 17.363C7.36401 16.46 8.82901 15.727 10.636 15.727C12.443 15.728 13.909 16.46 13.909 17.363Z" fill="white"/>
</g>
</svg>
