<svg width="48" height="49" viewBox="0 0 48 49" fill="none" xmlns="http://www.w3.org/2000/svg">
<g id="playing_cards">
<mask id="mask0_24_2004" style="mask-type:alpha" maskUnits="userSpaceOnUse" x="0" y="0" width="48" height="49">
<rect id="Bounding box" y="0.874268" width="48" height="48" fill="#D9D9D9"/>
</mask>
<g mask="url(#mask0_24_2004)">
<path id="playing_cards_2" d="M30.2 29.4243L32.2 22.1743L26 17.9243L24 25.1743L30.2 29.4243ZM9.74996 40.8743L6.44996 39.5243C5.37763 39.0566 4.6513 38.2564 4.27096 37.1238C3.8903 35.9908 3.99996 34.8743 4.59996 33.7743L9.74996 21.5243V40.8743ZM16.85 43.7743C15.7223 43.7743 14.7571 43.3743 13.9545 42.5743C13.1515 41.7743 12.75 40.8076 12.75 39.6743V24.0243L19.6 42.4243C19.7 42.6909 19.8083 42.9243 19.925 43.1243C20.0416 43.3243 20.2 43.5409 20.4 43.7743H16.85ZM26 42.5243C25.2333 42.7909 24.4678 42.7543 23.7035 42.4143C22.9391 42.0739 22.4213 41.5273 22.15 40.7743L12.55 14.6743C12.2833 13.9076 12.324 13.1429 12.672 12.3803C13.02 11.6179 13.5793 11.0993 14.35 10.8243L30.3 5.07426C31.0666 4.8076 31.8416 4.84093 32.625 5.17426C33.4083 5.5076 33.9333 6.0576 34.2 6.82426L43.85 32.8743C44.1166 33.6409 44.08 34.4054 43.74 35.1678C43.3996 35.9304 42.853 36.4493 42.1 36.7243L26 42.5243ZM25 39.6743L40.9 33.8743L31.35 7.92426L15.45 13.6743L25 39.6743Z" fill="#0F172A"/>
</g>
</g>
</svg>
