<svg width="74" height="48" viewBox="0 0 74 48" fill="none" xmlns="http://www.w3.org/2000/svg">
<g id="&#240;&#159;&#166;&#134; illustration &#34;Fast Working&#34;">
<path id="Vector" d="M18.1137 6.71691C17.9412 6.67293 12.8763 2.76521 13.3365 0.335999L10.3862 2.2408C10.3862 2.2408 13.7695 7.29546 17.7348 7.34282L18.1137 6.71691Z" fill="#F56132"/>
<path id="Vector_2" d="M17.7358 7.68116C13.6352 7.63379 10.2485 2.64342 10.1064 2.43027C10.0813 2.39288 10.0639 2.35085 10.0552 2.30664C10.0465 2.26242 10.0467 2.21692 10.0559 2.1728C10.065 2.12868 10.0829 2.08683 10.1084 2.0497C10.1339 2.01258 10.1666 1.98093 10.2046 1.95661L13.1582 0.0518067C13.2131 0.0173081 13.2768 -0.000668264 13.3417 1.89938e-05C13.4066 0.000706252 13.4699 0.0200289 13.5241 0.0556838C13.5782 0.0913387 13.6211 0.141821 13.6474 0.20112C13.6737 0.260418 13.6824 0.32603 13.6724 0.390137C13.2867 2.42012 17.6444 6.04026 18.2534 6.3955C18.3335 6.43128 18.3966 6.49679 18.4294 6.5782C18.449 6.6268 18.4571 6.67929 18.453 6.73155C18.4489 6.7838 18.4327 6.83439 18.4057 6.87931L18.0301 7.50523C18.0012 7.55812 17.9587 7.60231 17.9069 7.63325C17.8552 7.66418 17.7961 7.68072 17.7358 7.68116ZM10.8677 2.34569C11.6222 3.36068 14.41 6.83872 17.5497 7.01126L17.6647 6.81842C16.5415 5.99627 13.2664 3.21519 12.9924 0.975447L10.8677 2.34569Z" fill="#093F68"/>
<path id="Vector_3" d="M17.5456 7.45784C17.5456 7.45784 11.6282 6.35827 9.42568 3.83771L8.74902 7.45784C8.74902 7.45784 14.8627 10.1137 17.5456 8.16834V7.45784Z" fill="#F56132"/>
<path id="Vector_4" d="M14.8184 9.21718C11.9967 9.21718 8.79609 7.86385 8.61339 7.76912C8.54284 7.73892 8.48465 7.68564 8.44838 7.61801C8.41211 7.55038 8.39991 7.47244 8.41377 7.39696L9.09043 3.77682C9.10244 3.71399 9.13202 3.65584 9.17573 3.60913C9.21945 3.56242 9.27551 3.52906 9.33742 3.51292C9.39799 3.49744 9.46168 3.49904 9.5214 3.51755C9.58113 3.53607 9.63455 3.57077 9.67575 3.61781C11.7632 6.01995 17.5318 7.11614 17.5893 7.12629C17.6681 7.14071 17.7393 7.18262 17.7901 7.24458C17.8409 7.30654 17.868 7.38451 17.8667 7.46462V8.17512C17.8665 8.2288 17.8535 8.28164 17.8288 8.32929C17.804 8.37695 17.7684 8.41804 17.7246 8.44917C16.8587 8.99984 15.8433 9.26819 14.8184 9.21718ZM9.13103 7.25148C10.2611 7.70146 14.9469 9.42018 17.207 7.98904V7.73529C16.0736 7.49846 11.8444 6.51053 9.64868 4.53468L9.13103 7.25148Z" fill="#093F68"/>
<path id="Vector_5" d="M4.43532 19.6005H24.0111C24.7889 19.6006 25.5435 19.8653 26.151 20.351C26.7584 20.8367 27.1826 21.5146 27.3538 22.2733L32.6216 45.6621H6.02209L1.09262 23.7924C0.977006 23.2902 0.976284 22.7683 1.09051 22.2657C1.20473 21.7631 1.43094 21.2927 1.75229 20.8897C2.07363 20.4868 2.4818 20.1615 2.94637 19.9383C3.41094 19.7151 3.91991 19.5996 4.43532 19.6005Z" fill="#FFBC0E"/>
<path id="Vector_6" d="M32.6216 46.014H6.0221C5.94389 46.0159 5.86744 45.9907 5.80575 45.9425C5.74406 45.8944 5.70096 45.8264 5.68377 45.7501L0.761062 23.8669C0.634255 23.315 0.633678 22.7415 0.759374 22.1894C0.885069 21.6372 1.13379 21.1205 1.487 20.6779C1.84021 20.2352 2.28879 19.878 2.79929 19.6329C3.30979 19.3878 3.86903 19.2611 4.43533 19.2622H24.0111C24.8672 19.2606 25.698 19.5527 26.3648 20.0895C27.0316 20.6264 27.4941 21.3757 27.6753 22.2125L32.9431 45.6012C32.9542 45.6504 32.9542 45.7014 32.9431 45.7506C32.932 45.7998 32.91 45.8459 32.8788 45.8854C32.848 45.9244 32.809 45.9562 32.7645 45.9784C32.7201 46.0006 32.6713 46.0128 32.6216 46.014ZM6.28938 45.3373H32.1987L27.0223 22.3613C26.8709 21.6763 26.4895 21.0638 25.9417 20.6256C25.3939 20.1873 24.7127 19.9498 24.0111 19.9524H4.43533C3.97194 19.9517 3.51435 20.0553 3.0965 20.2557C2.67866 20.456 2.31131 20.7479 2.02171 21.1096C1.73212 21.4714 1.52772 21.8937 1.42369 22.3453C1.31967 22.7968 1.31868 23.266 1.42081 23.718L6.28938 45.3373Z" fill="#093F68"/>
<path id="Vector_7" d="M11.6352 43.1518C11.5575 43.1538 11.4814 43.1291 11.4198 43.0816C11.3582 43.0342 11.3148 42.9669 11.2969 42.8912C11.2597 42.7356 7.49746 27.1521 6.84448 24.4184C5.92422 20.531 4.33068 19.9389 4.33068 19.9389C4.2461 19.9104 4.17623 19.8495 4.1363 19.7697C4.09638 19.6898 4.08963 19.5974 4.11754 19.5126C4.14477 19.4283 4.20396 19.3581 4.2824 19.317C4.36083 19.2759 4.45227 19.2672 4.53707 19.2927C4.61826 19.3164 6.48585 19.9457 7.51437 24.2662C8.16735 26.9965 11.9127 42.58 11.9668 42.739C11.9873 42.8256 11.9728 42.9167 11.9266 42.9927C11.8804 43.0686 11.8061 43.1234 11.7198 43.145L11.6352 43.1518Z" fill="#093F68"/>
<path id="Vector_8" d="M43.1849 43.3547C42.938 41.6935 43.2289 40.3605 41.5677 40.6075C39.8084 40.868 37.6329 39.2948 35.877 38.476C34.6049 37.8839 32.0065 28.8302 31.631 27.7577C30.2133 23.6977 17.3839 21.908 17.3839 21.908C14.843 21.908 11.9198 24.7905 10.7796 30.5151L10.1943 43.8149H31.2656L30.9746 40.347C30.9746 40.347 34.4662 45.1174 40.008 45.2054C41.2603 45.2242 42.512 45.1381 43.7499 44.9483C45.4111 44.6945 43.4319 45.0159 43.1849 43.3547Z" fill="#68E1FD"/>
<path id="Vector_9" d="M40.3357 45.5471H39.9973C35.7411 45.4794 32.6962 42.7863 31.397 41.3789L31.6 43.7912C31.6039 43.8378 31.5981 43.8847 31.5829 43.929C31.5678 43.9732 31.5436 44.0139 31.512 44.0483C31.4801 44.0827 31.4413 44.1101 31.3982 44.1288C31.3551 44.1474 31.3086 44.1569 31.2616 44.1566H10.1938C10.1041 44.1566 10.018 44.1209 9.95456 44.0575C9.89111 43.994 9.85547 43.908 9.85547 43.8182L10.4408 30.5185C10.4391 30.5016 10.4391 30.4846 10.4408 30.4677C11.6622 24.3304 14.8052 21.5865 17.3766 21.5865H17.4205C17.9551 21.6576 30.4733 23.4406 31.9451 27.6596C32.006 27.8355 32.1278 28.2246 32.2834 28.7558C34.1374 34.7239 35.3893 37.8907 36.005 38.1817C36.4516 38.3914 36.9118 38.6384 37.399 38.9023C38.7523 39.6365 40.2951 40.4654 41.5029 40.2861C41.7209 40.2338 41.9474 40.2273 42.1681 40.2669C42.3888 40.3065 42.5989 40.3914 42.7852 40.5161C43.269 40.8985 43.3333 41.5988 43.4043 42.4074C43.4314 42.6984 43.4585 43.0029 43.5058 43.3175C43.5406 43.5663 43.6419 43.8011 43.7992 43.997C43.9564 44.193 44.1636 44.3428 44.399 44.4306C44.5377 44.4949 44.7678 44.6066 44.7373 44.8772C44.7069 45.1479 44.5174 45.1851 43.8577 45.2866H43.7596C42.6264 45.4594 41.4819 45.5464 40.3357 45.5471ZM30.9741 40.0086C31.0269 40.009 31.0789 40.0218 31.1259 40.0459C31.1729 40.07 31.2136 40.1047 31.2447 40.1474C31.2786 40.1947 34.7092 44.7825 40.0109 44.884C41.1817 44.8944 42.3515 44.8118 43.5092 44.637C43.1396 44.3224 42.8988 43.8829 42.8325 43.4021C42.7818 43.0638 42.7547 42.7254 42.7277 42.4514C42.6701 41.7984 42.6194 41.2334 42.3623 41.0304C42.1302 40.9016 41.8569 40.8688 41.601 40.9391C40.1665 41.1522 38.5222 40.2624 37.0742 39.4808C36.5971 39.2237 36.1437 38.9801 35.7208 38.7805C34.8649 38.3813 33.6909 35.5325 31.6372 28.9385C31.4782 28.4208 31.3598 28.0385 31.2989 27.866C30.7575 26.3096 28.1896 24.8447 23.8759 23.6301C21.7292 23.0367 19.5486 22.5734 17.3461 22.2429C14.1962 22.2632 11.9058 26.5566 11.1005 30.5523L10.5355 43.4731H30.8827L30.6222 40.374C30.6177 40.3015 30.6366 40.2294 30.6762 40.1685C30.7158 40.1076 30.774 40.061 30.8421 40.0357C30.8838 40.0179 30.9287 40.0087 30.9741 40.0086Z" fill="#093F68"/>
<path id="Vector_10" d="M27.7803 25.9544L19.6807 43.3547L19.9987 22.8823L27.7803 25.9544Z" fill="white"/>
<path id="Vector_11" d="M19.6802 43.693H19.6024C19.5267 43.6752 19.4595 43.6318 19.4121 43.5702C19.3646 43.5085 19.3398 43.4325 19.3419 43.3547L19.6599 22.8823C19.6613 22.8278 19.6759 22.7743 19.7024 22.7266C19.7289 22.6789 19.7666 22.6383 19.8122 22.6083C19.8575 22.578 19.9095 22.5591 19.9637 22.5532C20.0179 22.5473 20.0727 22.5546 20.1235 22.5744L27.9051 25.6465C27.9479 25.6635 27.9868 25.6891 28.0194 25.7217C28.0519 25.7542 28.0775 25.7931 28.0945 25.8359C28.1127 25.8782 28.122 25.9236 28.122 25.9696C28.122 26.0155 28.1127 26.061 28.0945 26.1032L19.9915 43.5036C19.9631 43.5616 19.9187 43.6102 19.8636 43.6438C19.8084 43.6774 19.7448 43.6945 19.6802 43.693ZM20.3298 23.3763L20.0423 41.7747L27.3367 26.1371L20.3298 23.3763Z" fill="#093F68"/>
<path id="Vector_12" d="M24.7651 27.6064L23.5903 27.3036C23.1408 27.1877 22.6825 27.4582 22.5666 27.9077L22.4177 28.4853C22.3019 28.9348 22.5724 29.3931 23.0219 29.5089L24.1967 29.8118C24.6462 29.9276 25.1045 29.6571 25.2204 29.2076L25.3693 28.63C25.4851 28.1805 25.2146 27.7222 24.7651 27.6064Z" fill="#F56132"/>
<path id="Vector_13" d="M24.1127 30.1937C24.0121 30.1932 23.912 30.1796 23.8149 30.1531L22.6443 29.8486C22.3423 29.769 22.084 29.5731 21.9261 29.3036C21.7683 29.0341 21.7236 28.713 21.8019 28.4106L21.9541 27.8355C21.9922 27.6855 22.06 27.5447 22.1536 27.4215C22.2472 27.2983 22.3646 27.1951 22.4988 27.1182C22.6316 27.0398 22.7786 26.9883 22.9313 26.9669C23.084 26.9454 23.2394 26.9543 23.3886 26.993L24.5627 27.3009C24.864 27.3805 25.1216 27.5759 25.2794 27.8446C25.4372 28.1134 25.4824 28.4336 25.4051 28.7354L25.2528 29.314C25.1864 29.5658 25.0386 29.7887 24.8324 29.9478C24.6262 30.1069 24.3731 30.1933 24.1127 30.1937ZM23.0977 27.6325C23.0098 27.6328 22.9234 27.6562 22.8473 27.7002C22.79 27.7335 22.7398 27.7778 22.6997 27.8307C22.6596 27.8835 22.6304 27.9438 22.6139 28.008L22.465 28.5832C22.4482 28.6467 22.4442 28.713 22.4532 28.7781C22.4622 28.8432 22.484 28.9059 22.5173 28.9625C22.5507 29.0191 22.5949 29.0686 22.6475 29.108C22.7001 29.1474 22.7599 29.176 22.8236 29.1922L23.9943 29.5001C24.123 29.5331 24.2596 29.5139 24.3742 29.4468C24.4889 29.3796 24.5724 29.2699 24.6066 29.1414L24.7555 28.5663C24.7885 28.4375 24.7694 28.301 24.7022 28.1863C24.635 28.0716 24.5253 27.9881 24.3969 27.9539L23.2262 27.6494C23.1824 27.6364 23.1366 27.6307 23.0909 27.6325H23.0977Z" fill="#093F68"/>
<path id="Vector_14" d="M22.847 36.5509L19.8257 43.0401L19.9272 36.4968L22.5154 29.4662L24.1157 29.8824L22.847 36.5509Z" fill="#F56132"/>
<path id="Vector_15" d="M19.8267 43.3784C19.8009 43.3817 19.7748 43.3817 19.7489 43.3784C19.6732 43.3605 19.606 43.3171 19.5585 43.2555C19.5111 43.1939 19.4863 43.1178 19.4884 43.04L19.5899 36.4967C19.5903 36.4586 19.5972 36.4209 19.6102 36.3851L22.1984 29.3546C22.2276 29.2759 22.2849 29.2109 22.3593 29.1721C22.4337 29.1334 22.5199 29.1236 22.601 29.1448L24.2013 29.5643C24.2841 29.586 24.3555 29.6381 24.4013 29.7103C24.4471 29.7825 24.4639 29.8694 24.4483 29.9534L23.1796 36.6219C23.1741 36.6489 23.165 36.6751 23.1525 36.6997L20.1312 43.1821C20.1043 43.2403 20.0614 43.2897 20.0075 43.3244C19.9535 43.3592 19.8909 43.3779 19.8267 43.3784ZM20.2666 36.5576L20.1887 41.4566L22.5232 36.446L23.7243 30.1293L22.7262 29.8688L20.2666 36.5576Z" fill="#093F68"/>
<path id="Vector_16" d="M27.3541 0.884068C28.4368 0.772419 29.5431 1.13105 30.5581 1.56073C31.705 2.04454 32.8384 2.62647 34.0767 2.75165C35.315 2.87683 36.7157 2.41332 37.2672 1.3036C38.2213 2.93773 38.1299 4.97787 37.7408 6.83192C37.6421 7.37316 37.4809 7.90111 37.2604 8.40516C37.0312 8.86166 36.7629 9.29747 36.4586 9.70773C36.0221 10.3336 35.5383 10.875 35.403 11.6261C35.2148 12.4944 34.9511 13.3446 34.6147 14.1669C33.938 16.0244 33.1057 17.8277 32.3546 19.6614L15.9727 16.6164C15.9727 16.6164 16.2467 12.5565 16.8658 9.21715C17.485 5.87783 19.7924 1.70283 23.7001 3.36065C23.9209 2.91854 24.239 2.5322 24.6305 2.23062C25.2809 1.62571 26.0679 1.18696 26.9244 0.951733C27.0661 0.920422 27.2096 0.897826 27.3541 0.884068Z" fill="#725858"/>
<path id="Vector_17" d="M32.3541 19.9964H32.2932L15.9113 16.9514C15.8324 16.937 15.7613 16.8951 15.7105 16.8331C15.6597 16.7712 15.6325 16.6932 15.6338 16.6131C15.6338 16.5725 15.918 12.4854 16.5338 9.1698C16.9432 6.97404 18.1036 4.23695 20.137 3.14752C20.6572 2.87174 21.2314 2.71309 21.8193 2.6827C22.4073 2.6523 22.9948 2.75091 23.5406 2.97159C23.7819 2.60339 24.08 2.27567 24.4237 2.00058C25.1164 1.36023 25.9531 0.896044 26.863 0.64726C27.0126 0.613961 27.164 0.58911 27.3164 0.572827C28.5344 0.447644 29.7591 0.880707 30.6997 1.27317L31.2951 1.5303C32.1809 1.9657 33.1278 2.26347 34.1033 2.41334C35.1183 2.51823 36.4547 2.16636 36.9588 1.15137C36.9857 1.09645 37.0269 1.04983 37.0781 1.01647C37.1294 0.983106 37.1887 0.964252 37.2498 0.961907C37.3111 0.959843 37.3718 0.974493 37.4255 1.00429C37.4791 1.03409 37.5236 1.07791 37.5543 1.13107C38.4035 2.59266 38.5693 4.47716 38.0651 6.88269C37.9608 7.44941 37.7916 8.00225 37.561 8.53036C37.3229 9.00446 37.0444 9.45723 36.7287 9.88368C36.6509 9.99533 36.5697 10.107 36.4885 10.222C36.1284 10.6421 35.8682 11.1384 35.7273 11.6734C35.5435 12.5369 35.2842 13.3826 34.9525 14.2008L34.9254 14.2718C34.4687 15.4966 33.951 16.7146 33.4503 17.892C33.1864 18.5179 32.9191 19.1438 32.662 19.7765C32.6384 19.8396 32.5965 19.8943 32.5417 19.9335C32.4868 19.9727 32.4215 19.9946 32.3541 19.9964ZM16.3308 16.3289L32.1477 19.2724C32.371 18.7276 32.6045 18.1829 32.8244 17.6382C33.3218 16.4676 33.8394 15.2699 34.2894 14.0451L34.3131 13.9775C34.6319 13.1958 34.881 12.3874 35.0574 11.5618C35.2142 10.925 35.5164 10.3332 35.9404 9.83293L36.1705 9.51152C36.4635 9.1168 36.7227 8.69804 36.9453 8.2597C37.156 7.7734 37.3115 7.26498 37.4088 6.74397C37.8215 4.77151 37.7471 3.19827 37.2295 1.95998C36.4615 2.87009 35.142 3.18474 34.0424 3.07309C32.9891 2.91274 31.9674 2.58853 31.0143 2.11223L30.4256 1.85848C29.5697 1.49647 28.4464 1.09724 27.3807 1.2055C27.2545 1.21893 27.1291 1.23926 27.0051 1.2664C26.2003 1.48734 25.4624 1.90337 24.8567 2.47763C24.499 2.74664 24.2074 3.0938 24.0041 3.49262C23.9683 3.57466 23.9014 3.63914 23.818 3.67193C23.7357 3.70577 23.6433 3.70577 23.5609 3.67193C23.0762 3.43363 22.5423 3.31253 22.0023 3.31841C21.4622 3.32429 20.931 3.45697 20.4517 3.70576C18.6281 4.68016 17.5556 7.3056 17.1935 9.25439C16.686 12.0219 16.4086 15.3308 16.3308 16.3289Z" fill="#093F68"/>
<path id="Vector_18" d="M23.0414 23.6616L26.0686 24.2176L25.7464 25.9716C25.6838 26.3128 25.4881 26.6151 25.2025 26.8121C24.917 27.009 24.5649 27.0844 24.2237 27.0218L23.7661 26.9377C23.4249 26.8751 23.1226 26.6794 22.9256 26.3939C22.7287 26.1083 22.6533 25.7562 22.7159 25.415L23.0363 23.671L23.0414 23.6616Z" fill="#FFC9B0"/>
<path id="Vector_19" d="M24.4781 27.7205C24.3759 27.7204 24.2739 27.7102 24.1736 27.6901L23.7169 27.6055C23.5036 27.566 23.3001 27.4849 23.1182 27.3668C22.9363 27.2486 22.7794 27.0958 22.6565 26.917C22.5337 26.7383 22.4472 26.537 22.4022 26.3248C22.3572 26.1126 22.3544 25.8936 22.394 25.6804L22.7323 23.9346C22.7488 23.8468 22.7993 23.7691 22.8728 23.7184C22.9463 23.6677 23.0369 23.6481 23.1248 23.6639L26.1698 24.2289C26.2574 24.2449 26.3352 24.2947 26.3863 24.3676C26.4116 24.4043 26.4294 24.4456 26.4387 24.4891C26.4479 24.5327 26.4485 24.5776 26.4404 24.6214L26.1021 26.3706C26.0313 26.7493 25.8308 27.0916 25.5351 27.3386C25.2393 27.5855 24.8668 27.7218 24.4815 27.7239L24.4781 27.7205ZM24.2988 27.0269C24.5523 27.0733 24.8139 27.0173 25.0262 26.8713C25.1325 26.7996 25.2232 26.7072 25.2929 26.5997C25.3627 26.4921 25.41 26.3716 25.4322 26.2454L25.6961 24.8312L23.3278 24.3913L23.0639 25.8056C23.0404 25.9311 23.0419 26.06 23.0683 26.185C23.0948 26.3099 23.1456 26.4284 23.2178 26.5337C23.2901 26.639 23.3825 26.729 23.4896 26.7985C23.5967 26.868 23.7165 26.9158 23.842 26.939L24.2988 27.0269Z" fill="#093F68"/>
<path id="Vector_20" d="M36.441 19.5274C36.7027 18.1221 35.8963 16.7932 34.6398 16.5592C33.3834 16.3252 32.1526 17.2747 31.8909 18.68C31.6292 20.0852 32.4356 21.4141 33.6921 21.6481C34.9485 21.8821 36.1793 20.9327 36.441 19.5274Z" fill="#FFC9B0"/>
<path id="Vector_21" d="M34.0764 22.0162C33.9255 22.0162 33.7749 22.0027 33.6264 21.9756C33.2755 21.9065 32.9433 21.7637 32.6517 21.5566C32.3601 21.3496 32.1157 21.083 31.9348 20.7745C31.5544 20.1231 31.4209 19.3566 31.5588 18.6149C31.6967 17.8733 32.0967 17.206 32.6859 16.7348C32.9645 16.5075 33.2891 16.3434 33.6373 16.2536C33.9854 16.1639 34.349 16.1507 34.7027 16.215C35.0565 16.2794 35.3921 16.4196 35.6864 16.6262C35.9807 16.8327 36.2267 17.1007 36.4075 17.4115C36.7955 18.061 36.9293 18.8311 36.7831 19.5734C36.6534 20.3174 36.2518 20.9866 35.6564 21.4512C35.208 21.8113 34.6515 22.0103 34.0764 22.0162ZM34.2523 16.86C33.8308 16.8638 33.4225 17.0078 33.0919 17.2694C32.6356 17.6398 32.3261 18.1605 32.2188 18.7383C32.1116 19.3161 32.2136 19.9132 32.5066 20.4226C32.637 20.6519 32.8159 20.8499 33.0307 21.0029C33.2456 21.156 33.4912 21.2603 33.7505 21.3086C34.0098 21.3569 34.2766 21.3481 34.5321 21.2827C34.7877 21.2173 35.0259 21.097 35.2301 20.9301C35.6927 20.5649 36.0046 20.0423 36.1064 19.4618C36.2217 18.8817 36.1194 18.2795 35.8188 17.7701C35.6862 17.5424 35.5066 17.3455 35.2919 17.1927C35.0772 17.0398 34.8324 16.9345 34.5738 16.8837C34.4676 16.8659 34.36 16.858 34.2523 16.86Z" fill="#093F68"/>
<path id="Vector_22" d="M24.6573 25.907C19.6636 24.9766 16.3412 17.9799 17.2546 13.0504L18.361 13.7271L18.9666 10.2389C18.9666 10.2389 25.5336 9.75509 25.2494 6.68982C25.2494 6.68982 26.6805 9.21038 29.3094 9.69758C34.161 10.5874 36.2993 9.65698 36.2993 9.65698L34.6414 18.5483C33.7381 23.4744 29.6545 26.8374 24.6573 25.907Z" fill="#FFC9B0"/>
<g id="Group">
<path id="Vector_23" d="M26.2888 26.3976C25.7212 26.3979 25.1548 26.3447 24.5972 26.2386C19.414 25.2744 15.9867 18.0341 16.9239 13.0031C16.9337 12.9494 16.9564 12.899 16.99 12.8559C17.0235 12.8129 17.067 12.7787 17.1167 12.7561C17.1669 12.7337 17.2217 12.7238 17.2765 12.7274C17.3314 12.7309 17.3845 12.7478 17.4314 12.7764L18.108 13.1892L18.629 10.1916C18.6417 10.1171 18.6788 10.049 18.7346 9.99815C18.7904 9.94727 18.8616 9.9165 18.9369 9.91077C18.9809 9.91077 23.1288 9.57244 24.5025 7.9586C24.6517 7.7958 24.7654 7.60376 24.8365 7.39467C24.9075 7.18558 24.9343 6.964 24.9152 6.744C24.9095 6.66776 24.9298 6.59184 24.9728 6.52862C25.0158 6.4654 25.0789 6.41859 25.1519 6.39583C25.2249 6.37307 25.3034 6.3757 25.3747 6.40329C25.446 6.43088 25.5059 6.48181 25.5445 6.54776C25.5445 6.57145 26.9351 8.93976 29.3812 9.38636C34.0434 10.2423 36.1478 9.38636 36.1749 9.38636C36.2304 9.36352 36.291 9.35588 36.3504 9.3642C36.4099 9.37253 36.4661 9.39652 36.5132 9.43372C36.5632 9.47297 36.6012 9.52553 36.6228 9.58537C36.6443 9.64521 36.6485 9.70991 36.635 9.77205L34.9806 18.6634C34.5805 21.0699 33.2983 23.241 31.3841 24.7533C29.9127 25.8467 28.1219 26.4247 26.2888 26.3976ZM17.4922 13.6155C16.7513 19.154 20.7944 24.8447 24.7055 25.5755C25.7899 25.7941 26.9084 25.7805 27.9873 25.5356C29.0661 25.2906 30.0808 24.8199 30.9646 24.1545C32.7413 22.7473 33.9315 20.7299 34.3039 18.4942L35.8568 10.1544C34.9163 10.3878 32.7848 10.6923 29.2425 10.0393C27.3918 9.701 26.1197 8.44242 25.4599 7.61351C25.3593 7.90022 25.2055 8.16537 25.0066 8.39505C23.6532 9.99873 20.226 10.4589 19.255 10.5637L18.6933 13.7948C18.684 13.8491 18.6615 13.9003 18.6279 13.9439C18.5943 13.9875 18.5506 14.0223 18.5005 14.0452C18.4499 14.0682 18.3944 14.0783 18.3389 14.0748C18.2835 14.0713 18.2297 14.0541 18.1824 14.0249L17.4922 13.6155Z" fill="#093F68"/>
<path id="Vector_24" d="M27.501 15.7771C27.5855 15.3234 27.2847 14.8868 26.8291 14.8019C26.3736 14.7171 25.9358 15.0161 25.8512 15.4698C25.7667 15.9236 26.0676 16.3602 26.5231 16.445C26.9787 16.5299 27.4165 16.2308 27.501 15.7771Z" fill="#093F68"/>
<path id="Vector_25" d="M33.2614 17.2424C33.7248 17.2424 34.1005 16.8667 34.1005 16.4033C34.1005 15.9399 33.7248 15.5643 33.2614 15.5643C32.798 15.5643 32.4224 15.9399 32.4224 16.4033C32.4224 16.8667 32.798 17.2424 33.2614 17.2424Z" fill="#093F68"/>
<path id="Vector_26" d="M28.5045 19.1336C28.0317 19.1128 27.565 19.0192 27.1207 18.8562C27.0417 18.8213 26.979 18.7576 26.9455 18.678C26.9119 18.5984 26.9101 18.5089 26.9404 18.428C26.9707 18.3471 27.0308 18.2809 27.1083 18.2429C27.1859 18.2048 27.2751 18.1979 27.3576 18.2235C27.7223 18.3551 28.104 18.4337 28.491 18.457C28.4863 17.7843 28.3721 17.117 28.1526 16.4811C28.1396 16.4385 28.1352 16.3937 28.1395 16.3493C28.1439 16.3049 28.157 16.2618 28.178 16.2225C28.1991 16.1832 28.2277 16.1485 28.2623 16.1203C28.2968 16.0921 28.3366 16.071 28.3793 16.0582C28.4646 16.0328 28.5564 16.042 28.6349 16.0838C28.7134 16.1256 28.7723 16.1966 28.7989 16.2815C28.9883 16.9007 29.3909 18.3927 29.0357 18.9002C28.9913 18.9674 28.9317 19.0232 28.8618 19.0632C28.7918 19.1031 28.7135 19.1261 28.6331 19.1303L28.5045 19.1336Z" fill="#093F68"/>
<path id="Vector_27" d="M27.6315 13.196C27.537 13.1968 27.4436 13.1772 27.3574 13.1385L23.6967 11.528C23.5374 11.4526 23.4139 11.318 23.3523 11.153C23.2907 10.9879 23.2959 10.8052 23.3669 10.6439C23.4378 10.4826 23.5689 10.3554 23.7322 10.2892C23.8955 10.2231 24.0782 10.2233 24.2414 10.2897L27.9021 11.9002C28.044 11.9627 28.1601 12.0721 28.231 12.21C28.3018 12.3479 28.3232 12.5059 28.2915 12.6577C28.2598 12.8094 28.177 12.9457 28.0568 13.0437C27.9367 13.1417 27.7865 13.1954 27.6315 13.196Z" fill="#093F68"/>
<path id="Vector_28" d="M30.1453 13.382C29.9658 13.3901 29.7905 13.3265 29.6579 13.2054C29.5253 13.0842 29.4463 12.9153 29.4382 12.7358C29.4301 12.5563 29.4937 12.381 29.6148 12.2484C29.736 12.1158 29.9049 12.0368 30.0844 12.0287L34.0665 11.6633C34.246 11.6467 34.4247 11.7021 34.5633 11.8172C34.702 11.9324 34.7892 12.0979 34.8058 12.2774C34.8224 12.4568 34.767 12.6355 34.6519 12.7742C34.5367 12.9128 34.3712 13 34.1917 13.0166L30.2096 13.3854L30.1453 13.382Z" fill="#093F68"/>
</g>
<path id="Vector_29" d="M18.93 14.0249C18.93 14.0249 17.0353 12.1167 15.5027 13.8354C13.97 15.5541 14.4877 19.0694 18.2601 18.775" fill="#FFC9B0"/>
<path id="Vector_30" d="M17.8162 19.1302C15.8403 19.1302 15.0114 18.0882 14.6866 17.4386C14.3988 16.8154 14.2989 16.1218 14.3992 15.4428C14.4996 14.7637 14.7958 14.1287 15.2516 13.6154C15.4535 13.3685 15.7052 13.167 15.9903 13.0242C16.2754 12.8813 16.5875 12.8003 16.9061 12.7865C18.1241 12.7392 19.1255 13.7508 19.1695 13.8015C19.2328 13.8652 19.2681 13.9515 19.2678 14.0412C19.2675 14.131 19.2315 14.217 19.1678 14.2803C19.1041 14.3435 19.0179 14.3789 18.9281 14.3786C18.8383 14.3782 18.7523 14.3423 18.6891 14.2786C18.6891 14.2786 17.8297 13.4327 16.923 13.47C16.6969 13.4818 16.4758 13.5417 16.2746 13.6455C16.0734 13.7493 15.8965 13.8948 15.7558 14.0722C15.3924 14.4861 15.1556 14.9956 15.0735 15.5402C14.9913 16.0848 15.0672 16.6415 15.2922 17.1442C15.7659 18.0983 16.8114 18.5652 18.2323 18.4502C18.2768 18.4466 18.3215 18.4519 18.3639 18.4656C18.4063 18.4793 18.4456 18.5012 18.4795 18.5301C18.5134 18.559 18.5413 18.5943 18.5616 18.634C18.5819 18.6737 18.5942 18.717 18.5977 18.7614C18.6013 18.8059 18.5961 18.8506 18.5823 18.893C18.5686 18.9354 18.5467 18.9747 18.5178 19.0086C18.4889 19.0425 18.4536 19.0704 18.4139 19.0907C18.3742 19.111 18.3309 19.1233 18.2865 19.1268C18.1241 19.1268 17.9651 19.1302 17.8162 19.1302Z" fill="#093F68"/>
<path id="Vector_31" d="M27.0693 17.6417C27.0209 17.6451 26.9723 17.6451 26.9239 17.6417L23.0737 17.1781C22.9175 17.1593 22.7665 17.1098 22.6295 17.0326C22.4924 16.9554 22.3719 16.852 22.2748 16.7282C22.1777 16.6044 22.106 16.4627 22.0637 16.3112C22.0213 16.1597 22.0093 16.0013 22.0282 15.8451L22.3158 13.4768C22.3208 13.4326 22.3344 13.3899 22.3558 13.351C22.3773 13.3121 22.4063 13.2778 22.441 13.2501C22.4762 13.2229 22.5165 13.203 22.5594 13.1913C22.6024 13.1797 22.6472 13.1767 22.6913 13.1825L28.2501 13.8591C28.3386 13.8708 28.4189 13.9171 28.4734 13.9877C28.5012 14.0227 28.5218 14.0628 28.534 14.1058C28.5462 14.1487 28.5497 14.1937 28.5445 14.238L28.2569 16.6064C28.2169 16.8931 28.0748 17.1557 27.8566 17.3459C27.6384 17.5361 27.3588 17.6412 27.0693 17.6417ZM22.9383 13.8693L22.6913 15.9195C22.6761 16.0567 22.7154 16.1943 22.8009 16.3026C22.8864 16.4109 23.0112 16.4811 23.1481 16.4981L26.9983 16.9616C27.0661 16.9701 27.1349 16.9651 27.2008 16.9469C27.2666 16.9287 27.3282 16.8976 27.382 16.8554C27.4358 16.8133 27.4807 16.7609 27.5141 16.7013C27.5476 16.6417 27.5689 16.5761 27.5768 16.5082L27.8238 14.458L22.9383 13.8693Z" fill="#093F68"/>
<path id="Vector_32" d="M33.9719 18.4739H33.8264L29.9796 18.0104C29.664 17.9706 29.3769 17.808 29.1805 17.5577C28.9842 17.3075 28.8944 16.99 28.9308 16.674L29.2183 14.3057C29.2237 14.2613 29.2379 14.2184 29.2599 14.1795C29.282 14.1406 29.3116 14.1064 29.3469 14.079C29.4167 14.0237 29.5054 13.9982 29.5939 14.0079L35.1527 14.6846C35.2414 14.6956 35.3222 14.7413 35.3773 14.8117C35.4325 14.882 35.4575 14.9714 35.447 15.0602L35.1594 17.4454C35.1193 17.7314 34.9769 17.9933 34.7586 18.1824C34.5402 18.3715 34.2607 18.4751 33.9719 18.4739ZM33.9076 17.7972C33.9759 17.8057 34.0451 17.8007 34.1114 17.7823C34.1776 17.7639 34.2396 17.7325 34.2937 17.6901C34.3478 17.6476 34.393 17.5949 34.4266 17.5349C34.4602 17.4749 34.4816 17.4088 34.4895 17.3405L34.7365 15.3105L29.851 14.7218L29.604 16.7518C29.5955 16.8198 29.6005 16.8888 29.6187 16.9549C29.6369 17.0209 29.6679 17.0828 29.71 17.1368C29.7521 17.1909 29.8045 17.2361 29.8641 17.2699C29.9237 17.3037 29.9894 17.3254 30.0574 17.3337L33.9076 17.7972Z" fill="#093F68"/>
<path id="Vector_33" d="M22.54 14.7455H22.4994L18.7338 14.2921C18.644 14.2814 18.5622 14.2354 18.5064 14.1643C18.4506 14.0933 18.4253 14.0029 18.436 13.9132C18.4468 13.8235 18.4928 13.7417 18.5638 13.6859C18.6349 13.63 18.7252 13.6047 18.815 13.6155L22.5806 14.0688C22.6248 14.0739 22.6676 14.0876 22.7065 14.1092C22.7455 14.1308 22.7797 14.1599 22.8074 14.1948C22.8351 14.2297 22.8556 14.2697 22.8677 14.3125C22.8799 14.3553 22.8835 14.4002 22.8783 14.4444C22.8691 14.5275 22.8294 14.6043 22.767 14.6599C22.7045 14.7155 22.6236 14.746 22.54 14.7455Z" fill="#093F68"/>
<path id="Vector_34" d="M27.4624 22.1042C23.8693 22.1042 22.1743 18.3825 22.154 18.3453C22.136 18.3047 22.1262 18.2609 22.1251 18.2164C22.124 18.172 22.1317 18.1278 22.1478 18.0863C22.1638 18.0448 22.1878 18.0069 22.2185 17.9747C22.2492 17.9425 22.2859 17.9167 22.3265 17.8987C22.3672 17.8807 22.411 17.8709 22.4554 17.8698C22.4999 17.8688 22.5441 17.8765 22.5856 17.8925C22.627 17.9085 22.6649 17.9326 22.6971 17.9632C22.7293 17.9939 22.7551 18.0306 22.7731 18.0713C23.1597 18.8537 23.686 19.5588 24.3261 20.152C24.9393 20.7419 25.7048 21.1493 26.5366 21.3286C27.3685 21.5079 28.2338 21.4519 29.0356 21.167C29.1209 21.1404 29.2131 21.1486 29.2924 21.1898C29.3716 21.231 29.4313 21.3019 29.4585 21.3869C29.4721 21.4296 29.4771 21.4745 29.4732 21.5191C29.4694 21.5637 29.4567 21.607 29.4359 21.6467C29.4151 21.6863 29.3867 21.7215 29.3522 21.7501C29.3178 21.7786 29.278 21.8001 29.2352 21.8132C28.6622 21.9987 28.0646 22.0968 27.4624 22.1042Z" fill="#093F68"/>
<path id="Vector_35" d="M28.0547 15.4492L29.4046 15.5642L28.0547 15.4492Z" fill="#FFC9B0"/>
<path id="Vector_36" d="M29.4039 15.9026H29.3667L28.0134 15.7842C27.9689 15.7802 27.9257 15.7675 27.8862 15.7468C27.8467 15.7261 27.8116 15.6978 27.783 15.6635C27.7544 15.6293 27.7329 15.5898 27.7196 15.5472C27.7063 15.5046 27.7015 15.4598 27.7055 15.4154C27.7095 15.371 27.7222 15.3277 27.7429 15.2882C27.7636 15.2487 27.7919 15.2137 27.8261 15.1851C27.8603 15.1565 27.8999 15.1349 27.9425 15.1216C27.985 15.1083 28.0298 15.1035 28.0742 15.1075L29.4276 15.2259C29.5173 15.23 29.6018 15.2695 29.6624 15.3358C29.7229 15.4021 29.7547 15.4897 29.7507 15.5795C29.7466 15.6692 29.7071 15.7537 29.6408 15.8143C29.5745 15.8748 29.4869 15.9066 29.3971 15.9026H29.4039Z" fill="#093F68"/>
<path id="Vector_37" d="M30.9748 40.347L30.2744 33.3638L30.9748 40.347Z" fill="#68E1FD"/>
<path id="Vector_38" d="M30.9735 40.6853C30.8893 40.6857 30.808 40.6548 30.7455 40.5984C30.6829 40.5421 30.6436 40.4645 30.6352 40.3808L29.9382 33.3977C29.9338 33.3532 29.9381 33.3084 29.951 33.2656C29.9639 33.2229 29.9851 33.1831 30.0134 33.1485C30.0417 33.114 30.0765 33.0853 30.1158 33.0642C30.1552 33.0431 30.1983 33.0299 30.2427 33.0255C30.2871 33.021 30.332 33.0254 30.3748 33.0383C30.4175 33.0512 30.4573 33.0724 30.4919 33.1007C30.5264 33.1289 30.5551 33.1637 30.5762 33.2031C30.5973 33.2424 30.6104 33.2856 30.6149 33.33L31.3118 40.3131C31.3165 40.3573 31.3124 40.402 31.2998 40.4447C31.2873 40.4873 31.2664 40.5271 31.2384 40.5616C31.2104 40.5962 31.1759 40.6249 31.1369 40.6461C31.0978 40.6673 31.0549 40.6807 31.0107 40.6853H30.9735Z" fill="#093F68"/>
<path id="Vector_39" d="M29.1377 42.4379H46.9982V44.2682H29.1377V42.4379Z" fill="#C1EAEF"/>
<path id="Vector_40" d="M46.9976 44.61H29.1372C29.0474 44.61 28.9614 44.5743 28.8979 44.5109C28.8345 44.4474 28.7988 44.3614 28.7988 44.2716V42.4379C28.7988 42.3481 28.8345 42.2621 28.8979 42.1986C28.9614 42.1352 29.0474 42.0995 29.1372 42.0995H46.9976C47.0874 42.0995 47.1734 42.1352 47.2369 42.1986C47.3003 42.2621 47.336 42.3481 47.336 42.4379V44.2716C47.336 44.3614 47.3003 44.4474 47.2369 44.5109C47.1734 44.5743 47.0874 44.61 46.9976 44.61ZM29.4755 43.9333H46.6593V42.7762H29.4755V43.9333Z" fill="#093F68"/>
<path id="Vector_41" d="M29.1377 42.4379H35.8705V44.2682H29.1377V42.4379Z" fill="#DFEAEF"/>
<path id="Vector_42" d="M35.8699 44.61H29.1372C29.0474 44.61 28.9614 44.5743 28.8979 44.5109C28.8345 44.4474 28.7988 44.3614 28.7988 44.2716V42.4379C28.7988 42.3481 28.8345 42.2621 28.8979 42.1986C28.9614 42.1352 29.0474 42.0995 29.1372 42.0995H35.8699C35.9597 42.0995 36.0457 42.1352 36.1092 42.1986C36.1726 42.2621 36.2083 42.3481 36.2083 42.4379V44.2716C36.2083 44.3614 36.1726 44.4474 36.1092 44.5109C36.0457 44.5743 35.9597 44.61 35.8699 44.61ZM29.4755 43.9333H35.5316V42.7762H29.4755V43.9333Z" fill="#093F68"/>
<path id="Vector_43" d="M23.2769 40.6108L23.8588 40.3672C25.1478 39.8259 28.2063 38.5741 29.1131 38.4218C30.2735 38.229 32.4625 38.5504 32.7197 38.4218C32.9768 38.2933 34.9087 40.4518 34.9729 41.1454C35.0372 41.839 32.6046 42.607 31.9449 42.1604C31.3861 41.7913 30.8078 41.4525 30.2126 41.1454C30.2126 41.1454 28.7274 44.4069 24.2851 44.055" fill="#FFC9B0"/>
<path id="Vector_44" d="M24.9684 44.4205C24.7485 44.4205 24.5218 44.4205 24.2918 44.39C24.2032 44.3823 24.1212 44.3399 24.0636 44.2722C24.0059 44.2044 23.9773 44.1167 23.9839 44.028C23.9908 43.9388 24.0328 43.856 24.1006 43.7976C24.1685 43.7393 24.2567 43.7102 24.3459 43.7168C28.504 44.0551 29.9216 41.0372 29.9385 41.0101C29.9574 40.9685 29.9845 40.9312 30.0183 40.9004C30.052 40.8696 30.0916 40.8459 30.1347 40.8308C30.1765 40.8131 30.2213 40.804 30.2667 40.804C30.312 40.804 30.3569 40.8131 30.3986 40.8308C31.009 41.1436 31.6019 41.4892 32.1749 41.8661C32.3711 42.0014 33.1087 41.9574 33.8665 41.6732C34.4383 41.4533 34.665 41.2233 34.6819 41.1522C34.6413 40.7158 33.2406 39.0343 32.7771 38.7568C32.3844 38.7939 31.989 38.7939 31.5963 38.7568C30.8087 38.6811 30.0156 38.6811 29.228 38.7568C28.6224 38.8549 26.6838 39.5756 24.0448 40.6786L23.4662 40.9222C23.425 40.9415 23.3803 40.9524 23.3348 40.9541C23.2893 40.9558 23.244 40.9483 23.2014 40.932C23.1589 40.9158 23.1201 40.8911 23.0873 40.8595C23.0545 40.8279 23.0285 40.79 23.0107 40.748C22.993 40.7061 22.9838 40.661 22.9839 40.6155C22.984 40.57 22.9932 40.5249 23.0111 40.4831C23.029 40.4412 23.0552 40.4034 23.088 40.3718C23.1209 40.3403 23.1598 40.3158 23.2023 40.2996L23.7843 40.0526C25.3846 39.376 28.2062 38.2392 29.1163 38.0869C29.9568 38.0054 30.8032 38.0054 31.6437 38.0869C31.9811 38.1178 32.32 38.128 32.6587 38.1174C32.7288 38.0922 32.8038 38.0837 32.8778 38.0925C32.9518 38.1013 33.0227 38.1272 33.085 38.1681C33.65 38.4828 35.301 40.3538 35.3721 41.1251C35.4059 41.4635 35.1758 41.7815 34.6954 42.0623C33.9139 42.5157 32.4455 42.8811 31.8196 42.4413C31.3648 42.1402 30.8951 41.8624 30.4122 41.609C29.8607 42.3905 28.2705 44.4171 24.9684 44.4205Z" fill="#093F68"/>
<path id="Vector_45" d="M16.7916 30.1226C16.7476 30.1835 12.4914 37.6166 12.4914 37.6166C14.7311 38.2053 21.4165 39.359 25.8013 39.2677V44.3427C25.6592 44.3427 21.1526 45.1107 17.4479 45.1107H17.1536C11.0196 45.0802 7.55852 44.1566 5.9413 42.1131C5.45634 41.502 5.13634 40.7768 5.01194 40.0067C4.88753 39.2365 4.9629 38.4474 5.2308 37.7148C7.42318 31.3271 13.706 23.9481 13.909 23.6537" fill="#68E1FD"/>
<path id="Vector_46" d="M17.4472 45.4557H17.1528C10.9039 45.4253 7.36495 44.4611 5.6733 42.3296C5.15445 41.6744 4.81181 40.8975 4.67798 40.0726C4.54414 39.2476 4.62356 38.4022 4.90867 37.6166C6.21462 33.8172 9.1581 29.0163 13.4177 23.7451L13.6308 23.4778C13.682 23.405 13.7598 23.3553 13.8474 23.3394C13.935 23.3236 14.0253 23.3429 14.0988 23.3932C14.1722 23.4435 14.2229 23.5207 14.2398 23.6081C14.2567 23.6955 14.2385 23.7861 14.1891 23.8601C14.1654 23.8939 14.0808 23.9988 13.9455 24.1714C9.73326 29.3851 6.84054 34.1115 5.5515 37.8399C5.30531 38.5162 5.23606 39.2442 5.35035 39.9548C5.46463 40.6653 5.75865 41.3349 6.20448 41.8999C7.75403 43.8554 11.1306 44.7385 17.1562 44.7689H17.4472C20.1327 44.7203 22.8112 44.4794 25.4622 44.0483V39.6128C21.1485 39.6398 14.7338 38.5538 12.4061 37.9448C12.3558 37.9317 12.3091 37.9072 12.2698 37.8732C12.2305 37.8391 12.1996 37.7965 12.1794 37.7486C12.1598 37.7007 12.1514 37.649 12.1549 37.5974C12.1585 37.5457 12.1738 37.4956 12.1997 37.4508C15.0281 32.5078 16.4796 29.9805 16.51 29.9331C16.5601 29.8598 16.6369 29.8091 16.724 29.792C16.8111 29.7748 16.9014 29.7925 16.9755 29.8414C17.0497 29.8902 17.1016 29.9662 17.1202 30.053C17.1389 30.1398 17.1226 30.2304 17.075 30.3053C16.9701 30.4779 14.4902 34.8119 13.0151 37.4103C15.671 38.0429 21.7947 39.0275 25.8006 38.9429C25.8457 38.9422 25.8904 38.9505 25.9323 38.9673C25.9741 38.9842 26.0122 39.0092 26.0442 39.041C26.0761 39.0723 26.1016 39.1097 26.119 39.1509C26.1364 39.1922 26.1455 39.2365 26.1457 39.2812V44.3562C26.1461 44.4403 26.1151 44.5216 26.0588 44.5842C26.0025 44.6468 25.9249 44.6861 25.8412 44.6945L25.6822 44.7182C22.9586 45.1626 20.2064 45.4091 17.4472 45.4557Z" fill="#093F68"/>
<path id="Vector_47" d="M71.6116 44.2716H2.0136C1.08867 44.2716 0.338867 45.0214 0.338867 45.9463V45.9869C0.338867 46.9119 1.08867 47.6617 2.0136 47.6617H71.6116C72.5365 47.6617 73.2863 46.9119 73.2863 45.9869V45.9463C73.2863 45.0214 72.5365 44.2716 71.6116 44.2716Z" fill="#093F68"/>
<path id="Vector_48" d="M71.611 48H2.00968C1.47832 47.9947 0.970217 47.7813 0.594469 47.4055C0.21872 47.0298 0.00528758 46.5217 0 45.9903V45.9463C0.00528758 45.415 0.21872 44.9069 0.594469 44.5311C0.970217 44.1554 1.47832 43.9419 2.00968 43.9366H71.611C72.1424 43.9419 72.6505 44.1554 73.0262 44.5311C73.402 44.9069 73.6154 45.415 73.6207 45.9463V45.9903C73.6154 46.5217 73.402 47.0298 73.0262 47.4055C72.6505 47.7813 72.1424 47.9947 71.611 48ZM2.00968 44.6167C1.65778 44.6219 1.32175 44.7641 1.07289 45.0129C0.824028 45.2618 0.681901 45.5978 0.676661 45.9497V45.9903C0.681028 46.3428 0.822769 46.6797 1.07172 46.9293C1.32068 47.1789 1.6572 47.3215 2.00968 47.3267H71.611C71.9635 47.3215 72.3 47.1789 72.549 46.9293C72.7979 46.6797 72.9397 46.3428 72.944 45.9903V45.9463C72.9388 45.5944 72.7967 45.2584 72.5478 45.0095C72.299 44.7607 71.9629 44.6185 71.611 44.6133L2.00968 44.6167Z" fill="#093F68"/>
<path id="Vector_49" d="M67.0235 17.2424H40.5221C39.8438 17.2424 39.2939 17.7922 39.2939 18.4705V35.952C39.2939 36.6303 39.8438 37.1802 40.5221 37.1802H67.0235C67.7018 37.1802 68.2516 36.6303 68.2516 35.952V18.4705C68.2516 17.7922 67.7018 17.2424 67.0235 17.2424Z" fill="#093F68"/>
<path id="Vector_50" d="M67.0236 37.5321H40.5323C40.1171 37.5312 39.7192 37.3659 39.4256 37.0723C39.1321 36.7787 38.9667 36.3808 38.9658 35.9656V18.4705C38.9649 18.2641 39.0048 18.0595 39.0831 17.8685C39.1613 17.6775 39.2765 17.5038 39.422 17.3573C39.5675 17.2109 39.7405 17.0945 39.931 17.015C40.1215 16.9355 40.3259 16.8944 40.5323 16.8939H67.0236C67.4388 16.8948 67.8367 17.0601 68.1303 17.3537C68.4238 17.6473 68.5892 18.0452 68.59 18.4604V35.9419C68.5927 36.1495 68.5542 36.3555 68.4768 36.5481C68.3993 36.7407 68.2844 36.916 68.1387 37.0639C67.993 37.2118 67.8194 37.3293 67.628 37.4097C67.4366 37.4901 67.2312 37.5317 67.0236 37.5321ZM40.5323 17.5706C40.2963 17.5706 40.07 17.6643 39.9031 17.8312C39.7362 17.9981 39.6425 18.2244 39.6425 18.4604V35.9419C39.6393 36.0608 39.66 36.179 39.7033 36.2897C39.7466 36.4004 39.8116 36.5013 39.8946 36.5865C39.9775 36.6716 40.0767 36.7393 40.1862 36.7855C40.2958 36.8317 40.4134 36.8555 40.5323 36.8554H67.0236C67.2596 36.8554 67.4859 36.7617 67.6528 36.5948C67.8196 36.4279 67.9134 36.2016 67.9134 35.9656V18.4705C67.9147 18.3528 67.8927 18.236 67.8486 18.1269C67.8045 18.0178 67.7391 17.9185 67.6564 17.8348C67.5736 17.7511 67.4751 17.6846 67.3665 17.6393C67.2578 17.5939 67.1413 17.5706 67.0236 17.5706H40.5323Z" fill="#093F68"/>
<path id="Vector_51" d="M68.8365 17.2424H42.3351C41.6568 17.2424 41.1069 17.7922 41.1069 18.4705V35.952C41.1069 36.6303 41.6568 37.1802 42.3351 37.1802H68.8365C69.5148 37.1802 70.0646 36.6303 70.0646 35.952V18.4705C70.0646 17.7922 69.5148 17.2424 68.8365 17.2424Z" fill="white"/>
<path id="Vector_52" d="M68.8365 37.5321H42.3384C41.9226 37.5321 41.5239 37.3671 41.2296 37.0735C40.9352 36.7798 40.7695 36.3814 40.7686 35.9656V18.4705C40.7695 18.0548 40.9352 17.6563 41.2296 17.3627C41.5239 17.069 41.9226 16.9041 42.3384 16.9041H68.8365C69.2522 16.9041 69.651 17.069 69.9453 17.3627C70.2396 17.6563 70.4054 18.0548 70.4063 18.4705V35.9521C70.4076 36.1591 70.368 36.3643 70.2897 36.5559C70.2114 36.7476 70.096 36.9218 69.9501 37.0687C69.8042 37.2155 69.6307 37.3321 69.4396 37.4116C69.2484 37.4911 69.0435 37.5321 68.8365 37.5321ZM42.3384 17.5706C42.1021 17.5706 41.8754 17.6642 41.708 17.831C41.5406 17.9978 41.4461 18.2241 41.4452 18.4604V35.9419C41.4461 36.1782 41.5406 36.4045 41.708 36.5713C41.8754 36.7381 42.1021 36.8317 42.3384 36.8317H68.8365C69.0728 36.8317 69.2994 36.7381 69.4668 36.5713C69.6342 36.4045 69.7287 36.1782 69.7296 35.9419V18.4705C69.7287 18.2342 69.6342 18.0079 69.4668 17.8411C69.2994 17.6744 69.0728 17.5807 68.8365 17.5807L42.3384 17.5706Z" fill="#093F68"/>
<path id="Vector_53" d="M51.1658 41.4094H60.0131C60.5749 41.4094 61.1136 41.6325 61.5108 42.0297C61.908 42.4269 62.1311 42.9656 62.1311 43.5273V44.2716H49.0479V43.5273C49.0479 42.9656 49.271 42.4269 49.6682 42.0297C50.0654 41.6325 50.6041 41.4094 51.1658 41.4094Z" fill="#68E1FD"/>
<path id="Vector_54" d="M62.1281 44.6099H49.0483C48.9586 44.6099 48.8725 44.5743 48.8091 44.5108C48.7456 44.4474 48.71 44.3613 48.71 44.2716V43.5273C48.7109 42.8761 48.9699 42.2518 49.4304 41.7914C49.8908 41.3309 50.5151 41.0719 51.1662 41.071H60.0102C60.6614 41.0719 61.2856 41.3309 61.7461 41.7914C62.2065 42.2518 62.4656 42.8761 62.4665 43.5273V44.2716C62.4665 44.3613 62.4308 44.4474 62.3674 44.5108C62.3039 44.5743 62.2179 44.6099 62.1281 44.6099ZM49.3866 43.9333H61.7898V43.5273C61.7889 43.0556 61.6011 42.6034 61.2676 42.2699C60.934 41.9363 60.4819 41.7485 60.0102 41.7476H51.1662C50.6945 41.7485 50.2424 41.9363 49.9088 42.2699C49.5753 42.6034 49.3875 43.0556 49.3866 43.5273V43.9333Z" fill="#093F68"/>
<path id="Vector_55" d="M55.5874 27.2096C55.7811 27.2096 55.9729 27.2477 56.1519 27.3219C56.3309 27.396 56.4935 27.5047 56.6305 27.6416C56.7674 27.7786 56.8761 27.9412 56.9502 28.1202C57.0244 28.2992 57.0625 28.491 57.0625 28.6847V41.4059H54.1089V28.6847C54.1089 28.491 54.147 28.2992 54.2212 28.1202C54.2953 27.9412 54.404 27.7786 54.5409 27.6416C54.6779 27.5047 54.8405 27.396 55.0195 27.3219C55.1985 27.2477 55.3903 27.2096 55.584 27.2096H55.5874Z" fill="#68E1FD"/>
<path id="Vector_56" d="M57.0625 41.7476H54.1123C54.0225 41.7476 53.9365 41.712 53.873 41.6485C53.8096 41.5851 53.7739 41.499 53.7739 41.4093V28.6881C53.7739 28.2071 53.965 27.7459 54.3051 27.4058C54.6452 27.0657 55.1064 26.8746 55.5874 26.8746C56.0683 26.8746 56.5296 27.0657 56.8697 27.4058C57.2098 27.7459 57.4008 28.2071 57.4008 28.6881V41.4093C57.4008 41.499 57.3652 41.5851 57.3017 41.6485C57.2383 41.712 57.1522 41.7476 57.0625 41.7476ZM54.4506 41.071H56.7242V28.6881C56.7242 28.3866 56.6044 28.0974 56.3912 27.8843C56.178 27.6711 55.8889 27.5513 55.5874 27.5513C55.2859 27.5513 54.9967 27.6711 54.7835 27.8843C54.5704 28.0974 54.4506 28.3866 54.4506 28.6881V41.071Z" fill="#093F68"/>
<path id="Vector_57" d="M40.739 42.4379C40.739 42.4379 40.4853 40.8815 41.9773 40.347C43.4693 39.8124 44.3287 39.1493 45.0223 40.0086C45.7158 40.868 45.8444 42.4412 45.8444 42.4412L40.739 42.4379Z" fill="#FFC9B0"/>
<path id="Vector_58" d="M45.8474 42.7762H40.7386C40.6575 42.7772 40.5788 42.7491 40.5167 42.6969C40.4546 42.6448 40.4133 42.572 40.4003 42.492C40.3143 41.9754 40.4134 41.4451 40.6802 40.9945C40.947 40.5439 41.3643 40.202 41.8585 40.0289C42.1698 39.9173 42.4472 39.8022 42.7179 39.6906C43.7126 39.2778 44.5753 38.9226 45.2824 39.7921C46.0369 40.7191 46.1756 42.3431 46.179 42.4108C46.1827 42.4574 46.1768 42.5044 46.1614 42.5486C46.1461 42.5928 46.1218 42.6334 46.09 42.6677C46.0582 42.702 46.0196 42.7294 45.9767 42.7481C45.9338 42.7668 45.8875 42.7763 45.8407 42.7762H45.8474ZM41.0634 42.0995H45.4617C45.3799 41.426 45.14 40.7814 44.7614 40.2184C44.3892 39.765 44.0137 39.8801 42.9784 40.3165C42.7145 40.4248 42.4168 40.55 42.0886 40.6548C41.7861 40.755 41.5235 40.9492 41.3391 41.2091C41.1547 41.4689 41.0581 41.7809 41.0634 42.0995Z" fill="#093F68"/>
<path id="Vector_59" d="M36.4958 11.8088L16.5444 8.57093L17.1027 5.14026L37.2604 8.40176L36.4958 11.8088Z" fill="#F56132"/>
<path id="Vector_60" d="M36.4957 12.1573H36.4415L16.48 8.91945C16.436 8.91352 16.3936 8.89841 16.3557 8.8751C16.3178 8.85179 16.2853 8.82079 16.2601 8.78411C16.2076 8.71196 16.1857 8.62197 16.1992 8.53375L16.7608 5.10308C16.775 5.01481 16.8235 4.93573 16.8958 4.88311C16.968 4.8305 17.0582 4.80862 17.1465 4.82226L37.3043 8.08377C37.35 8.0912 37.3937 8.10795 37.4327 8.13298C37.4717 8.15801 37.5051 8.19077 37.531 8.22925C37.557 8.26744 37.5749 8.31056 37.5837 8.35594C37.5924 8.40133 37.5917 8.44803 37.5817 8.49315L36.8103 11.8798C36.7967 11.9547 36.7583 12.0229 36.7012 12.0732C36.6441 12.1235 36.5717 12.1532 36.4957 12.1573ZM16.9334 8.30368L36.2351 11.4366L36.8509 8.68938L17.3834 5.54291L16.9334 8.30368Z" fill="#093F68"/>
</g>
</svg>
