<svg width="49" height="49" viewBox="0 0 49 49" fill="none" xmlns="http://www.w3.org/2000/svg">
<g id="sports_tennis">
<mask id="mask0_24_2033" style="mask-type:alpha" maskUnits="userSpaceOnUse" x="0" y="0" width="49" height="49">
<rect id="Bounding box" x="0.666504" y="0.874268" width="48" height="48" fill="#D9D9D9"/>
</mask>
<g mask="url(#mask0_24_2033)">
<path id="sports_tennis_2" d="M26.6664 29.2742C23.6997 29.2742 21.3747 29.4909 19.6914 29.9242C18.0081 30.3576 16.6164 31.1242 15.5164 32.2242L7.86641 39.8742C7.56641 40.1742 7.21641 40.3159 6.81641 40.2992C6.41641 40.2826 6.06641 40.1242 5.76641 39.8242C5.46641 39.5242 5.31641 39.1659 5.31641 38.7492C5.31641 38.3326 5.46641 37.9742 5.76641 37.6742L13.3664 30.0742C14.4664 28.9742 15.2497 27.5992 15.7164 25.9492C16.1831 24.2992 16.4164 21.9909 16.4164 19.0242C16.4164 17.1242 16.8331 15.2576 17.6664 13.4242C18.4997 11.5909 19.7664 9.82424 21.4664 8.12424C24.3997 5.19091 27.6164 3.52424 31.1164 3.12424C34.6164 2.72424 37.4997 3.65757 39.7664 5.92424C42.0331 8.19091 42.9664 11.0909 42.5664 14.6242C42.1664 18.1576 40.4997 21.3909 37.5664 24.3242C35.8664 26.0242 34.0997 27.2742 32.2664 28.0742C30.4331 28.8742 28.5664 29.2742 26.6664 29.2742ZM21.3164 24.3242C22.9497 25.9576 25.1664 26.5659 27.9664 26.1492C30.7664 25.7326 33.2831 24.4076 35.5164 22.1742C37.7497 19.9409 39.0831 17.4492 39.5164 14.6992C39.9497 11.9492 39.3497 9.75757 37.7164 8.12424C36.0831 6.49091 33.8747 5.88257 31.0914 6.29924C28.3081 6.71591 25.7997 8.04091 23.5664 10.2742C21.3331 12.5076 19.9914 14.9992 19.5414 17.7492C19.0914 20.4992 19.6831 22.6909 21.3164 24.3242ZM37.4664 46.8742C35.4664 46.8742 33.7664 46.1742 32.3664 44.7742C30.9664 43.3742 30.2664 41.6742 30.2664 39.6742C30.2664 37.6742 30.9664 35.9742 32.3664 34.5742C33.7664 33.1742 35.4664 32.4742 37.4664 32.4742C39.4664 32.4742 41.1664 33.1742 42.5664 34.5742C43.9664 35.9742 44.6664 37.6742 44.6664 39.6742C44.6664 41.6742 43.9664 43.3742 42.5664 44.7742C41.1664 46.1742 39.4664 46.8742 37.4664 46.8742Z" fill="#0F172A"/>
</g>
</g>
</svg>
