<svg width="30" height="30" viewBox="0 0 30 30" fill="none" xmlns="http://www.w3.org/2000/svg">
<g id="Icon" clip-path="url(#clip0_43_2951)">
<path id="Vector" d="M15 30C23.2843 30 30 23.2842 30 15C30 6.71568 23.2843 -4.57764e-05 15 -4.57764e-05C6.71576 -4.57764e-05 3.05176e-05 6.71568 3.05176e-05 15C3.05176e-05 23.2842 6.71576 30 15 30Z" fill="#1D4ED8"/>
<path id="Vector_2" d="M22.2163 10.4369L22.1817 10.7394L22.0694 11.4624L21.9916 12.1452L22.1443 12.8279L22.0665 13.3205L22.0463 13.8275L21.9887 14.5304L22.0665 14.7983L22.0838 15.9506L22.101 16.3136L22.0636 16.6535L22.101 17.4342L22.1587 17.7943L22.1212 18.1198L22.0809 18.9178L22.0031 19.6236L22.0434 20.1162L22.0809 20.7643L22.1212 21.087L21.6257 21.6055H21.2455L20.5253 21.6804H20.1652L19.8022 21.738L19.154 21.643L18.794 21.6257L18.4886 21.6055L17.7108 21.4557L17.7511 20.3697L17.6561 20.0298L17.6733 19.5717L17.5783 18.9956V18.575L17.4832 18.212L17.6157 17.4112L17.5984 16.2589L17.6157 15.9189L17.2844 16.5585L17.054 16.7889L16.9416 17.1288L16.5441 17.705L16.1638 18.2811L15.4581 18.3762L14.5938 18.5491L13.8909 18.2811L13.4531 17.705L13.188 17.4774L12.8078 16.8696L12.5399 16.2214L12.4448 15.9535L12.3325 15.7259L12.0847 15.7058V15.844L11.9724 15.6366L11.7822 15.5012L11.6872 15.7317L11.86 15.9218L12.0876 15.8642L12.0501 16.1523L12.295 16.1696L12.4477 15.9622L12.5255 16.1897L12.4679 16.5153L12.3728 17.4256L12.2345 17.8606L12.3094 18.526L12.4448 18.8688L12.367 19.2664L12.3296 19.7042L12.3469 20.4071L12.3641 21.1302L11.788 21.643L11.4999 21.738L10.483 21.6055L9.79453 21.6919L9.50646 21.6747L9.08875 21.6574L8.38297 21.6747L8.04304 21.5018L7.96526 21.1619L8.00271 20.4187L7.89036 19.6581L7.77802 18.8227L7.95086 18.1746L7.81546 17.414L7.8558 17.054L7.83563 16.6161L7.89324 15.9333L7.91053 15.5128L7.96814 14.7724L7.98543 14.4296L7.83275 13.7065L7.86156 12.9633V12.511L7.89901 12.2086L7.86156 11.4279L7.89901 11.1398L7.86156 10.7423L7.89901 10.3447L7.91629 9.94717L7.99407 9.54963L8.05169 8.50392L8.69697 8.38869L9.11756 8.29363L10.6933 8.42902L10.9987 8.41174L11.3588 8.31667L11.9119 8.48664L12.2547 8.90723L12.6177 9.48337L13.1448 10.3706L13.6202 10.9814L13.793 11.304L14.0004 11.8801L14.2309 12.1279L14.4383 12.5254L15.0144 13.4588L15.1469 13.1909L15.2679 12.8711L15.7231 12.2057L16.0861 11.4999L16.449 10.9237L16.8869 10.4311L17.1577 9.79449L17.5725 9.16361L17.705 8.87554L18.5981 8.29939L19.0187 8.24178L19.6438 8.41462L20.1191 8.357L20.4446 8.43478L20.8105 8.35412L21.934 8.41174L22.0838 9.11464L22.101 10.0826L22.2163 10.4369ZM21.0294 8.49816L20.7413 8.6422L20.629 8.71998L20.7241 8.77759L20.8969 8.88994L20.9343 9.02246L20.8566 9.10024L20.7615 9.32781L20.7068 9.46321L20.8393 9.65334L20.8018 9.8982L20.9747 10.0509L21.1648 9.9731V10.0826L21.2772 10.0048L21.1245 10.4427L21.3722 10.6328L21.4097 10.6155L21.5451 10.6328L21.62 10.8402L21.908 10.4772L21.666 10.3706V10.1978L21.571 10.1431L21.6084 10.0307L21.5134 9.93565L21.4961 9.84058L21.3837 9.85787L21.401 9.74552L21.2483 9.65046L21.3261 9.55539L21.4385 9.61013L21.6689 9.46033L21.1936 9.21258L21.1533 9.40271L21.1158 9.2702L21.1533 9.17513L21.0985 9.02246L21.0582 8.91011L21.1533 8.70269L21.0294 8.49816ZM11.2003 8.72574L11.1053 8.85825L11.0275 9.01093L11.2724 9.12328L11.3674 8.99077L11.3501 8.72286H11.2349L11.4654 8.55001L11.2752 8.5673L11.2003 8.72574ZM10.8086 8.6422L10.5406 8.65948L10.4052 8.88994L10.5406 9.11752H10.8086V8.6422ZM8.58174 9.44016L8.59903 9.63029H8.71425L8.44635 9.68791L8.63647 9.87803L8.90438 9.82042L8.93031 9.56403L8.91303 9.41135L8.7978 9.35662L8.89286 9.39407L9.0657 8.9562L8.74306 8.91875L8.60767 8.84097V9.01381L8.648 9.28172L8.74306 9.31917L8.58174 9.44016ZM10.2382 8.91011L10.1806 9.13768L10.1978 9.17802L10.3505 9.21546L10.2929 9.10312L10.2382 8.91011ZM19.782 9.08295L19.6092 9.13768L19.5718 9.32781L19.9347 9.1953L19.9895 9.40271L20.41 9.29036L20.3323 9.04262L20.1018 8.98789L19.9318 9.1953L19.782 9.08295ZM11.3012 9.17802H11.3962L11.4913 9.00517L11.2608 9.17802L11.3184 9.32781L11.3012 9.17802ZM11.8139 9.21546L11.7361 9.10312L11.6036 9.1204L11.8139 9.21546ZM9.81758 9.19818L9.70523 9.1204L9.57271 9.17802L9.81758 9.34798V9.19818ZM9.42004 9.34798L9.24719 9.15785L9.28752 9.31053L9.03978 9.13768L9.02249 9.38543L9.31057 9.48049L9.32785 9.57556L9.42004 9.34798ZM11.0188 9.15785L10.8834 9.21546L10.8662 9.36814L10.9785 9.44304L10.9612 9.61589L11.1917 9.8233L11.1341 9.59572L11.0217 9.55827L10.9814 9.44304L11.0188 9.15785ZM11.595 9.29324L11.4999 9.34798L11.4596 9.52082L11.5748 9.6735H11.7246L11.8197 9.61589L11.8024 9.50354L11.8975 9.31341L11.6296 9.20106L11.595 9.29324ZM11.0621 9.33069L11.2147 9.29324L11.1975 9.19818L11.0621 9.33069ZM12.2604 9.31341L12.125 9.21835L11.9551 9.27596L12.2604 9.31341ZM10.6616 9.31341L10.5291 9.2558L10.3937 9.35086L10.6616 9.31341ZM10.2238 9.67638L10.0826 9.31341L10.0452 9.52082L10.2238 9.67638ZM10.8143 9.90396L11.0592 9.8089L10.8316 9.69655L10.8143 9.48913L10.3764 9.66198H10.2554L10.3505 9.83194L10.6588 9.79449L10.6011 9.92989L10.7538 9.83482L10.7365 9.94717L10.869 10.0422L10.8143 9.90396ZM12.4102 9.6591L12.2777 9.54387L12.0876 9.60148L12.4102 9.6591ZM20.3582 9.79161H20.4907L20.3582 9.56403L20.2804 9.67638L20.3582 9.79161ZM10.8518 9.77433L10.774 9.66198L10.8316 9.69943L10.8518 9.77433ZM9.12332 9.67926L8.97064 9.88668L9.04842 10.0394L9.01097 10.2295L9.08587 10.1344L9.18093 10.0192L9.35378 10.0768L9.29904 9.92413L9.41139 9.84923L9.29904 9.67638L9.12332 9.67926ZM20.1652 9.71383L20.0528 9.90396L20.1479 10.1143L20.1652 9.71383ZM10.241 9.734H10.1258L10.2987 9.82906L10.241 9.734ZM10.0308 9.94141L9.84062 9.75128L9.80317 9.86363L9.88095 9.97598L10.0308 9.94141ZM11.3242 9.86363V10.0365L11.6267 9.8838L11.4913 9.79449L11.3242 9.86363ZM12.6551 10.4398L12.367 10.4801L12.5399 10.3447L12.272 10.2122L12.3843 10.0394L12.272 9.83194L12.0991 9.81466L12.2115 10.1027L12.0617 10.2352L12.0444 10.4254L11.9292 10.5377L11.909 10.3706L11.8312 10.5608H11.7361L11.7938 10.4283L11.4913 10.2756L11.5691 10.1805L11.0534 10.0826L11.1312 10.3303L11.3213 10.385L11.3386 10.6155L11.4913 10.7106L11.7189 10.5752L11.8139 10.6155L11.7361 10.7653L11.9263 10.6702L12.0617 10.918L11.909 10.9958L12.1567 10.918L12.1395 11.0505L11.9868 11.1283L11.9292 11.3962L11.9493 11.8715L12.0991 11.9666V11.6554L12.1164 11.4653L12.1366 11.3299H12.3065L12.4794 11.0419L12.5572 11.232L12.3094 11.5201L12.4995 11.6929L12.7675 11.6151V11.2349H12.8798L12.9576 11.0649L12.8625 10.9122H12.7502V10.8172H12.5975L12.5744 10.6587L12.4246 10.604L12.5197 10.6213L12.6551 10.4398ZM9.79453 9.84923L9.54679 9.92701L9.35666 10.0768L9.5295 10.0595L9.47189 10.192L9.56695 10.3073L9.83486 10.1171L9.68506 10.0221L9.72251 9.98174L9.79453 9.84923ZM11.981 10.0768H12.0991L11.9263 9.94429L11.981 10.0768ZM10.6098 10.2122L10.5349 10.3073L10.3246 10.3447L10.3822 10.7077L10.6501 10.8575L10.5723 11.0476L10.7797 10.8575L10.9151 10.4974L10.8201 10.5147L10.895 10.4023L10.7999 10.192L10.8777 10.097L10.7826 10.1373L10.7279 9.96446L10.6098 10.2122ZM10.1921 10.2497L10.3044 10.2871L10.3707 10.0826L10.2583 10.0451L10.146 10.1229L10.1921 10.2497ZM19.6611 10.2122L19.6207 10.0595L19.5429 10.3073L19.6611 10.2122ZM8.42618 10.1719L8.35416 10.0826H8.2591L8.42618 10.1719ZM8.56158 10.3245L8.65664 10.4571L8.9015 10.3073L8.80644 10.1546L8.63647 10.1719L8.56158 10.3245ZM20.9487 10.1719L20.8537 10.2669L21.1216 10.3245L21.0813 10.1892L20.9487 10.1719ZM20.1105 10.1719L20.0154 10.3447L19.903 10.4023V10.5925L19.8253 10.7048L20.0154 10.9324L19.903 11.0447L20.1105 11.1023L20.1882 11.0246L20.3956 10.9871L20.4734 10.797L20.2257 10.5896L20.3784 10.4542L20.3207 10.2468L20.1105 10.1719ZM9.04554 10.3073V10.5147L8.91015 10.7423V10.6097L8.81508 10.7595L8.8727 11.0851L9.06282 11.0678L9.12044 10.82L9.2155 10.8776L9.12044 10.7048L9.10027 10.5521L9.21838 10.5147L9.25583 10.362L9.14348 10.2669L9.04554 10.3073ZM20.4533 10.5348L20.5656 10.4398L20.5483 10.2871L20.4533 10.5348ZM19.4076 10.5521L19.3903 10.3447L19.3327 10.4571L19.4076 10.5521ZM9.97602 10.5694L10.1085 10.4743H10.0135L9.97602 10.5694ZM19.589 10.6097L19.4767 10.5925L19.4594 10.7999L19.5718 10.8172L19.6495 10.7221L19.589 10.6097ZM9.47477 11.1859L9.49205 10.9583L9.56983 10.8431L9.47477 10.6155L9.35954 10.9036L9.28464 10.9612L9.13196 11.0159L9.11468 11.2838L9.26448 11.5863L9.28464 11.4135L9.50646 11.3501L9.47477 11.1859ZM10.9958 10.6731L10.9555 10.7682L10.8604 10.8229L10.823 10.9007L10.7452 11.0735H10.8402L10.8575 10.9381L10.9526 10.9958L11.16 10.8834L11.4077 10.9612L11.4452 10.8258L11.3501 10.7134L11.2003 10.7307L11.183 10.7711L10.9958 10.6731ZM9.64473 11.0707L9.75996 11.0303L9.79741 10.8978L9.70235 10.8028L9.5295 10.9756L9.64473 11.0707ZM13.4099 10.8978L13.2024 10.8402L13.0296 10.9929L13.4675 11.1254L13.4099 10.8978ZM19.3615 10.9554L19.2261 10.8604L19.1713 11.183L19.3211 11.1254L19.3615 10.9554ZM8.41466 10.9151L8.22453 10.9929L8.20724 11.2003L8.38009 11.3357L8.5875 11.0303L8.41466 10.9151ZM11.5518 11.0505L11.3444 11.2003L11.8024 11.1628L11.6123 11.0678H11.7073L11.765 10.9554L11.5518 11.0505ZM20.9257 11.0303L20.8883 11.3731H20.6578L20.9833 11.5806L20.9257 11.448L21.1331 11.4653L21.2685 11.2752L21.1734 11.0476L20.9257 11.0303ZM9.92993 11.5229L10.1402 11.5431L9.92993 11.4077L9.79453 11.16L9.87231 11.425L9.8147 11.4452L9.75996 11.2925L9.60728 11.2752L9.51222 11.3875L9.59 11.5201L9.7398 11.6727L9.85503 11.9003H9.6649L9.56983 12.0732L9.85791 12.2258L9.95297 12.0732L9.87519 11.9234L10.025 12.1308L10.2929 12.0904L10.388 11.8456L10.2382 11.788L10.2756 11.6382L10.2554 11.5229L10.1604 11.4855L10.1777 11.618H9.90976L9.92993 11.5229ZM18.3186 11.2349L18.1083 11.2176L17.996 11.4077H18.4166L18.3186 11.2349ZM19.5343 11.3299L19.4796 11.5777L19.6524 11.7505L19.7648 11.2752L19.5343 11.3299ZM10.4456 11.4653L10.2727 11.2925L10.025 11.3703L10.4456 11.4653ZM19.0388 11.4077L18.8487 11.3703L18.8112 11.6929L19.0014 11.7332L19.1137 11.5806L19.0388 11.4077ZM10.4456 11.8629L10.6732 11.7851L10.7308 11.595L10.8258 11.69L10.9209 11.595L10.9036 11.4624L10.7682 11.4221L10.5954 11.4999L10.653 11.6526L10.4456 11.8629ZM11.7765 11.7678L11.8543 11.6554L11.7966 11.5431L11.6641 11.5229L11.7765 11.7678ZM8.84677 11.8456L8.76899 11.6151L8.54141 11.5777L8.84677 11.8456ZM21.1878 11.6151L21.1475 11.7102L21.2829 11.6151H21.1878ZM20.2545 11.6151L20.0067 11.6929L20.1594 11.7332L20.2545 11.6151ZM9.09451 11.7303L9.28464 11.6727L9.05418 11.6151L9.09451 11.7303ZM13.0872 11.8427H12.9633L12.8884 11.7303H12.7358L12.8308 11.8254L12.7934 12.0155L12.7156 12.2604L12.923 12.2057L13.2255 12.2806L13.3609 12.2633L13.2514 12.3872L13.4415 12.5571H13.6893L13.7066 12.6723L13.5164 12.6147L13.4041 12.5571L13.2917 12.6349L13.4243 12.7703L13.7498 12.8654L13.7671 13.0353L13.9745 12.8654L13.937 12.5975L13.7844 12.5398L13.937 12.4275L13.8016 12.3699L13.8189 12.1999L13.6691 12.0847L13.7239 11.8398L13.4012 11.8946L13.3436 11.7822L13.3839 11.6699L13.1938 11.8225L13.0872 11.8427ZM11.6468 12.0155L11.7794 11.8801L11.4164 11.7851L11.474 11.9752L11.6468 12.0155ZM21.2656 11.811L21.4356 12.1365L21.4558 11.9291L21.2656 11.811ZM19.5545 11.8888L19.4018 11.9839V12.1567L19.5545 11.8888ZM12.5572 11.9464L12.5197 12.0962L12.6897 11.9061L12.5572 11.9464ZM10.7884 12.6666L11.0188 12.7069L11.1514 12.7617L11.2868 12.6493L11.4366 12.5542V12.3468L11.3818 12.2345L11.2349 12.2431V12.0991L11.0621 11.9867L10.8921 12.0818L11.0044 12.3295L10.869 12.2518L10.7192 12.3295V12.5024L10.9872 12.3497L10.8921 12.5398L10.9295 12.5571L10.7884 12.6666ZM20.7701 12.1481L20.8854 12.0904V11.9781L20.7701 12.1481ZM17.633 11.9954H17.368L17.2326 12.2258L17.368 12.4534H17.633V12.3007L17.8231 12.318L17.633 12.1826V11.9954ZM21.2282 12.0155L21.038 12.0328L20.8652 12.1279L20.8479 12.3353L21.0208 12.4477L21.1331 12.3151L21.3405 12.1797L21.2282 12.0155ZM12.5197 12.3555L12.6321 12.2431L12.4246 12.0357L12.3094 12.1481L12.3497 12.3209L12.5197 12.3555ZM9.47765 12.6435L9.53238 12.3036V12.4361L9.85791 12.4534V12.2633L9.66778 12.1855L9.47765 12.0357L9.45749 12.2431L9.32497 12.3209L9.30769 12.5283L9.47765 12.6435ZM18.6614 12.3411V12.1855L18.526 12.0991L18.3907 12.1538L18.6614 12.3411ZM12.0991 12.1308L11.9493 12.2633L12.3094 12.2258L12.0991 12.1308ZM11.9263 12.2258L11.8888 12.1308H11.7938V12.3036L11.9263 12.2258ZM9.14925 12.874L9.18958 12.6263L9.37971 12.609L9.14925 12.5139L9.05418 12.5917L9.22703 12.2114L8.95912 12.2287L8.84677 12.4736L8.95912 12.6464L8.8266 12.7242L8.93895 12.897H9.14637L9.20398 13.0468L9.14925 12.874ZM10.2353 12.6263L10.3476 12.4534L10.555 12.511L10.4974 12.3036L10.29 12.2258L10.1402 12.3583H10.0048L10.0221 12.5485L10.1748 12.6608L10.2122 12.7559L10.2353 12.6263ZM21.6632 12.8942L21.7409 12.6868L21.8735 12.5341L21.8159 12.3065L21.5883 12.2662L21.6257 12.5341L21.6632 12.8942ZM18.0507 12.5456L18.1631 12.7933L18.4656 12.3555L18.1976 12.3382L18.0507 12.5456ZM12.8222 12.5283L12.8596 12.416L12.6522 12.3382L12.6148 12.4505L12.6897 12.5629L12.8222 12.5283ZM11.8888 12.3555H11.6209L11.4711 12.5629L11.6036 12.8106L11.7361 12.7328L12.0041 12.6003L11.8888 12.3555ZM16.2099 12.4678H16.0976L15.9852 12.6032L16.0429 12.753L16.233 12.7156L16.328 12.8106L16.3972 12.3872L16.2099 12.4678ZM19.4248 12.4304L19.324 12.3872L19.4364 12.5197L19.4248 12.4304ZM19.2289 12.3872L18.9265 12.4995L18.794 12.6119L18.8314 12.7847L18.9438 12.6896L19.0014 12.7847H19.2289L19.3413 12.5773L19.2289 12.3872ZM18.3647 12.537L18.4425 12.6493H18.575L18.6326 12.5168L18.575 12.4044L18.3647 12.537ZM12.6148 14.8675L12.7271 15.0374L13.0296 14.83L12.8971 14.6572H12.7617L12.802 14.4498V14.2424L12.7444 14.3374L12.707 14.1473L12.4967 14.0522L12.6493 13.8995L12.802 13.9773L12.8971 13.8995L12.7819 13.7497L12.6868 13.8045L12.6321 13.8246L12.7271 13.5942L12.8222 13.672L13.0296 13.6345L13.1074 13.4991L13.2975 13.5164L13.3148 13.3666L13.5424 13.5164L13.4675 13.3666L13.3321 13.2888L13.1419 13.1563L13.0296 13.1736L12.8395 13.3061L12.6868 13.3637L12.5917 13.5135L12.5168 13.1736L12.3872 13.1938L12.5226 13.0814L12.4074 12.8135L12.3526 12.5658L12.2172 12.4332L12.0473 12.4505L12.0847 12.7761L12.1971 12.8308L12.1193 12.9835L11.9493 12.9633L11.9292 13.0382L11.8341 12.9259L11.8744 12.8308L11.7016 12.8481L11.6641 12.9431L11.5489 12.8106L11.4942 12.6579L11.304 12.7357V12.8308H11.2061L11.2349 13.1361L11.4077 13.1189L11.5403 12.9864L11.6353 13.0036L11.7707 13.0814L11.788 13.2543L11.6353 13.3292L11.5028 13.4069L11.4625 13.3292L11.3127 13.2341L11.1398 13.3493L11.2925 13.4818L11.2349 13.5769L11.4077 13.7094L11.3674 14.0148L11.6555 13.937L11.6382 13.6115L12.0357 13.5567L12.0185 13.4213L12.1539 13.479L12.1942 13.8275L12.3296 13.7872L12.4419 13.8275L12.2892 13.9773L12.3469 14.1876L12.4967 14.395L12.5543 14.7926L12.6666 14.6975L12.6148 14.8675ZM20.3524 12.5629L20.4475 12.6032L20.5426 12.5456L20.3351 12.4505L20.3524 12.5629ZM19.7993 12.4678H19.6668L19.6092 12.583L19.6668 12.6954L19.8742 12.6003L19.7993 12.4678ZM10.9468 12.5456L10.9641 12.5283L11.0765 12.5859L10.9468 12.5456ZM20.9862 12.5456L20.8134 12.5859L20.7557 12.7357L20.8508 12.8711L21.0813 12.681L20.9862 12.5456ZM21.1936 12.6579L21.3434 12.6032L21.1533 12.5629L21.1936 12.6579ZM12.7703 12.8481L12.9057 12.6407L12.4102 12.6234L12.5255 12.851L12.7703 12.8481ZM12.8654 13.0584L12.9605 13.0382L13.2082 13.116L13.381 12.9431L13.3033 12.6983L13.0728 12.6407L13.0181 12.8135L12.8107 12.851L12.5428 12.9086L12.8452 13.0209L12.7127 13.0382L12.6551 13.1534L12.8654 13.0584ZM20.2257 13.1707L20.05 12.6752L19.8771 12.8654L19.9549 13.1304L20.2257 13.1707ZM16.6075 12.8308L16.4922 12.681L16.3424 13.0209L16.5326 13.0036L16.6075 12.8308ZM10.8806 13.0987L10.9958 13.116L11.1081 13.0785L11.1254 12.9662L11.0304 12.9086L10.918 12.8913V12.7962L10.823 12.7386L10.7826 12.874L10.7452 12.9864L10.8806 13.0987ZM10.1201 12.8913L10.2151 13.0238H10.388L10.1978 12.7357L10.1201 12.8913ZM17.0338 12.946L17.1692 13.1563L17.3017 13.1938L17.4544 13.0411L17.1865 12.7962L17.0338 12.946ZM17.0165 12.8913L16.789 12.874L16.6536 13.0641L16.7486 13.2715L16.9791 13.2888L17.0165 12.8913ZM15.9968 12.9633L15.8844 12.9057L15.7721 12.9835L15.7893 13.116L16.0169 13.0987L15.9968 12.9633ZM19.4018 12.9057L19.2289 13.0785L19.2866 13.2687L19.1137 13.2283L18.961 13.4386L19.4565 13.4934L19.3413 13.2658L19.6294 12.9633L19.4018 12.9057ZM10.388 12.923L10.5234 13.0008L10.6184 12.9431L10.388 12.923ZM13.5568 12.9403L13.5769 13.1304L13.672 13.0757L13.6518 12.9806L13.5568 12.9403ZM21.4356 13.3666L21.666 13.2543V13.0065L21.2858 12.9892H21.0957L21.0006 13.139L21.0957 13.3119L21.4356 13.3666ZM10.0653 13.1189L10.3332 13.1016L10.1978 13.0238L10.0653 13.1189ZM19.4594 13.309L19.6092 13.3666L19.7446 13.2543L19.7043 13.0814L19.4594 13.309ZM18.5952 13.2543L18.7277 13.2341L18.7853 13.1217L18.5952 13.2543ZM10.7596 13.4041L10.8719 13.3868L10.9872 13.3493L10.9756 13.5395L11.111 13.3666L11.0332 13.1361L10.9958 13.3263L10.7077 13.2312L10.5925 13.309V13.4444L10.7596 13.4041ZM10.4715 13.309L10.3764 13.2139L10.4341 13.4444L10.4715 13.309ZM16.9186 13.309L16.9013 13.4041L17.0137 13.2917L16.9186 13.309ZM20.7413 13.5971L20.8191 13.7094L20.9142 13.6921L20.9718 13.7699L21.2167 13.7325L21.2944 13.4847H21.0294V13.2888L20.9343 13.3666L20.9171 13.4444L20.7413 13.5971ZM8.64224 13.4473L8.37433 13.5222L8.46939 13.8275L8.33688 13.7872L8.43194 14.1675L8.56446 14.0349L8.54717 13.9399L8.79203 13.8045L8.98216 13.7497L9.07723 13.8621L9.11756 13.8995L9.21262 14.1675L9.55255 13.7699L9.30769 13.7123L9.21262 13.8074L9.11756 13.5625L9.05994 13.3148L8.8871 13.4876L8.98216 13.7152L8.8871 13.6979L8.79203 13.8102L8.83237 13.6201L8.64224 13.4473ZM18.5289 13.3119L18.6413 13.502V13.3666L18.5289 13.3119ZM9.85791 13.3292L9.72251 13.4444L10.0106 13.3868L9.85791 13.3292ZM15.9075 13.672L16.0976 13.6345L16.1754 13.4617L15.8729 13.3263L15.7951 13.5164L15.9075 13.672ZM13.6605 13.8275L13.9053 13.865L13.9831 13.4069L13.7152 13.3695L13.5654 13.5769L13.6029 13.7094L13.5856 13.8823L13.7181 13.9946H13.4905L13.5078 14.4325L13.2399 14.5852L13.2572 14.735L13.4473 14.6024L13.5424 14.7926L13.8103 14.8099L13.6202 14.4296H13.7325L13.8477 14.2222L13.7325 13.9917L13.6605 13.8275ZM20.1796 13.5971L19.9895 13.5193L19.7993 13.6921L19.8397 13.9399L19.952 13.8995L20.0845 14.2798L19.8771 14.202L19.687 14.3518L19.7648 14.5045L19.782 14.5996L19.9549 14.6773L20.145 14.5247L20.1277 14.372L20.2603 14.1646L20.2026 14.2769L20.338 14.4296L20.5282 14.3921L20.4331 14.3518L20.5454 14.274L20.3726 13.9341H20.4533L20.2458 13.8563V13.6662L20.3784 13.6288L20.3236 13.381L20.1709 13.4185L20.1796 13.5971ZM16.7227 13.6748L16.8351 13.7123L16.8927 13.4847L16.7573 13.4473L16.5671 13.5971L16.6795 13.5798L16.7227 13.6748ZM18.5289 13.6748L18.624 13.9226L18.9466 13.502L18.6787 13.4646L18.5289 13.6748ZM11.523 13.479L11.6008 13.5913L11.4682 13.6489L11.523 13.479ZM16.3713 13.6316L16.2935 13.5164L16.3223 13.8275L16.4346 13.7497L16.3713 13.6316ZM14.4873 13.5164L14.3547 13.574V13.7065L14.4873 13.5164ZM10.3995 13.5567L10.2094 13.7843L10.362 13.7296L10.3995 13.5567ZM14.7724 13.7065L14.6918 13.574H14.5218L14.7724 13.7065ZM19.6985 13.6691V13.7641L19.7936 13.6316L19.6985 13.6691ZM10.7682 13.9572L11.0736 14.0897L11.1686 13.8995L11.0332 13.7296L10.8258 13.7469L10.7135 13.9744L10.5406 13.9197L10.6933 13.9946L10.653 14.0897L10.7653 14.2625L10.9756 14.2452L10.7682 13.9572ZM15.7519 13.7843L15.6395 13.7296L15.5243 13.8045L15.5819 13.9946L15.6597 14.2049L15.8671 14.2424L15.9996 14.0897L15.8095 13.9197L15.8671 13.8246L15.7721 13.8794L15.7519 13.7843ZM19.5545 13.937L19.6323 13.7296L19.1944 13.7843L19.3269 13.9572L19.5545 13.937ZM9.93281 13.9197L10.0826 13.7469L9.95009 13.8016L9.93281 13.9197ZM16.1869 13.767L16.0745 13.7497L16.2272 13.8823L16.1869 13.767ZM21.3405 13.9399L21.2829 14.1675L21.7582 14.0349L21.5681 13.8621L21.4154 13.9197L21.2656 13.8045L21.1533 13.7497L20.9632 13.8823L21.1706 13.9773L21.1878 13.865L21.3405 13.9399ZM13.4271 13.767L13.2572 13.9946L13.407 13.9197L13.4271 13.767ZM15.0836 14.0695L15.3515 14.1098L15.0087 13.8275L15.0836 14.0695ZM10.1978 13.8275H10.025L9.95009 13.9773L10.025 14.13L10.1978 14.1127V13.8275ZM20.9055 13.8275L20.7327 13.8823L20.6203 14.0349L20.7529 14.0177L20.8479 14.0954L20.9055 13.8275ZM11.209 13.8448L11.1917 14.0926L11.3991 14.2251L11.209 13.8448ZM13.8708 13.9399L13.9831 13.8621L13.7555 13.8794L13.8708 13.9399ZM21.0294 14.0493L21.1418 14.1271L21.0294 13.9168V14.0493ZM14.4498 13.9917L14.4325 14.3173L14.3749 14.4498L14.5823 14.3L14.565 14.395L14.7724 14.5852L14.8675 14.0897H15.098L14.9799 13.9168L14.7897 13.9341L14.7494 14.0839L14.6169 14.0465L14.4498 13.9917ZM12.1452 14.3547L12.3152 14.3L12.0271 14.0522L11.9897 14.2424L12.1452 14.3547ZM19.1598 15.2506L19.2174 15.2103L19.3125 15.2506L19.2952 15.363L19.3903 15.4753L19.468 15.2276L19.5631 15.3053L19.7907 15.193L19.7532 14.9049H19.8656L19.5545 14.6917V14.444L19.324 14.3317L19.2693 14.2913L19.1339 14.2366L19.0129 14.0695L18.8804 14.1646L18.9351 14.3547V14.5448H19.1829L19.1051 14.6802L19.3125 14.7926L19.5026 14.6975L19.5602 14.83L19.3701 15.1181L19.301 14.9798L19.1656 15.0576L19.0532 15.2477L19.1598 15.2506ZM8.93031 14.0695L9.02537 14.2769L9.04266 14.1444L8.93031 14.0695ZM11.4193 14.3576L11.5719 14.4152L11.5316 14.2424L11.4366 14.2596L11.4193 14.3576ZM10.7711 14.3576L10.7538 14.2452L10.3908 14.3576L10.5262 14.565L10.6588 14.6428L10.8114 14.5304L10.7711 14.3576ZM10.9785 14.3028L10.8662 14.2625L10.8834 14.493L10.9756 14.4037L10.9785 14.3028ZM18.6413 14.2625L18.5289 14.4152L18.6067 14.588L18.6413 14.2625ZM21.4558 14.3028L21.1878 14.2827L21.3953 14.4181L21.2829 14.5909L21.3953 14.5333V14.4037L21.5681 14.5362L21.4558 14.3028ZM17.538 14.3576L17.4832 14.5304L17.8231 14.4526L17.7108 14.3201L17.538 14.3576ZM20.7903 14.6917L20.6549 14.8243L20.5598 14.6514H20.3697V14.5391L20.0672 14.6514L20.1998 14.7638L20.315 14.7263L20.2372 14.8214L20.6952 14.8588V15.0691L20.58 15.049L20.5253 14.8992L20.2372 14.9164L20.1249 14.8214L19.9722 14.8992L19.9895 15.072L19.9722 15.242L19.9146 15.4523L20.0298 15.6021L19.8195 15.4695L19.8022 15.7144L19.9923 15.8296L19.7648 16.0947H20.0672L20.1998 15.9247L20.1652 15.7807L20.4129 15.8757L20.2977 15.7432L20.2603 15.7029L20.3928 15.5531L20.2603 15.4177L20.3553 15.3053L20.4878 15.4407L20.4533 15.556L20.5858 15.4436L20.8335 15.3486L20.9286 15.1584L20.8911 14.9107L20.845 14.6917L20.9027 14.7868H21.0928L21.2253 14.9366L21.4154 14.8992L21.2253 14.6313L21.2426 14.3432L21.0525 14.3605H20.9027L20.6722 14.5506L20.7903 14.6917ZM15.219 14.4037L15.1412 14.516L15.1815 14.6284L15.3515 14.421L15.219 14.4037ZM15.9622 14.6917L15.9996 14.5189L15.8642 14.4037L15.7865 14.7263L15.9622 14.6917ZM15.6165 14.4037L15.3284 14.5362L15.2161 14.614L15.4062 14.7666L15.2737 15.0547L15.4811 14.902L15.4465 14.6917L15.4869 14.7465L15.5042 14.8415L15.5992 14.8819L15.4869 14.9193L15.4465 15.2074L15.6367 15.3025L15.8095 15.1699L15.7922 14.9625L15.6972 14.8271L15.6597 14.7897L15.7346 14.7119L15.6165 14.4037ZM9.70235 14.5535H9.50646L9.69659 14.7062H9.84927L9.92416 14.5736L9.84927 14.4382L9.70235 14.5535ZM8.90438 14.8588L8.8266 14.5535L8.71425 14.6687L8.7517 14.8012L8.90438 14.8588ZM11.7851 14.781L12.03 14.8761L12.2777 14.7234L12.1827 14.5909L11.9925 14.6082L11.765 14.5708L11.7851 14.781ZM18.8977 14.7983L18.9927 14.7206V14.6255L18.7824 14.6428L18.8026 14.758L18.8977 14.7983ZM21.5796 14.7033L21.4356 14.6917L21.3607 14.8041L21.6056 14.8819L21.5796 14.7033ZM11.3789 15.1728L11.5287 14.9424L10.9987 14.9049L11.0534 15.0173L10.9756 14.9049L10.9468 14.7522L10.8258 14.6917L10.6904 14.7868L10.7106 14.9366L10.8604 14.9193L10.918 15.0547L11.1081 15.1498L11.3156 15.2823L11.3789 15.1728ZM9.26736 14.7926L9.24719 14.9798L9.59 14.807L9.43732 14.7119L9.26736 14.7926ZM13.3955 14.7522L13.093 14.8876L13.2255 14.9827L13.3782 14.9251L13.3955 14.7522ZM16.2474 14.9049L16.1898 14.8099L16.0947 15.0173H16.2071L16.3021 15.0749L16.4173 15.0346L16.4346 14.902L16.2474 14.9049ZM9.76284 14.8271L9.89536 15.3428L10.0279 15.2276L9.76284 15.628L10.0653 15.6453L10.2929 15.6049L10.0826 15.5329L10.1604 15.4177L10.0826 15.1527L10.025 14.9049L9.76284 14.8271ZM15.3313 14.8444L15.1585 14.8271L15.1412 14.9222L15.314 14.9395L15.3313 14.8444ZM17.8808 15.2247L18.1285 14.8444H17.898L17.7655 15.0346L17.8808 15.2247ZM13.4704 14.9597L13.5453 15.072H13.6806L13.7354 14.9597L13.5453 14.8444L13.4704 14.9597ZM19.0215 14.9597L18.9092 15.0922L19.1973 14.9798L19.0215 14.9597ZM21.1129 15.1671L21.1302 15.072L20.9574 15.0547L21.1129 15.1671ZM12.3094 15.435L12.5197 15.3399L12.537 15.1095L12.1395 15.072L12.1193 15.2996L12.3094 15.435ZM14.4037 15.2679V15.4004L14.4988 15.4407L14.6716 15.4782L14.7667 15.1354L14.5766 15.0806L14.4037 15.2679ZM18.8717 15.2276L18.987 15.1325L18.8343 15.0778L18.8717 15.2276ZM8.93031 15.2679L8.98504 15.0951L8.75747 15.3025L8.93031 15.2679ZM18.4195 15.2103H18.552L18.3446 15.0979L18.4195 15.2103ZM9.21838 15.1527H9.08587L9.02826 15.265L9.21838 15.1527ZM11.7678 15.265L11.8053 15.3975L11.9176 15.4379L11.8629 15.1699L11.7678 15.265ZM21.5422 15.5877L21.7323 15.5704L21.8274 15.3802L21.7121 15.2074L21.4097 15.4148L21.5422 15.5877ZM16.4202 15.2852L16.3252 15.5128L16.8178 15.4379L16.6651 15.2477L16.4202 15.2852ZM20.8278 15.7029L20.8105 15.7979L20.943 15.9708L21.0553 15.6827L21.1907 15.6654L21.2455 15.5877V15.4148L21.3981 15.4926V15.3428L21.1101 15.2477L20.9027 15.3428L20.7903 15.5128V15.6078L20.8278 15.7029ZM11.016 15.6654L11.4135 15.3774L11.1888 15.2679L10.9987 15.4177L11.016 15.6654ZM13.7728 15.4753L13.7555 15.6078L13.9831 15.6482L13.9658 15.4955L13.9831 15.4004L13.8708 15.2881L13.8881 15.4407L13.7728 15.4753ZM18.2409 15.4379L18.2005 15.3025L18.068 15.2852L18.0104 15.4926L18.1458 15.5329L18.2409 15.4379ZM15.2939 15.7807L15.3313 15.3226L15.1239 15.4177L15.1066 15.6482L15.2939 15.7807ZM10.3966 15.5358L10.5118 15.7058H10.7192L10.702 15.3457H10.4917L10.3966 15.5358ZM18.7248 15.4955L18.8573 15.3457L18.5174 15.458L18.7248 15.4955ZM16.956 15.6078L17.1087 15.5531L17.0684 15.458L16.9733 15.4407L16.956 15.6078ZM15.6251 15.4955L15.8729 15.7259L15.8153 15.5358L15.6251 15.4955ZM17.489 15.5128L17.3536 15.6856L17.6964 15.5358L17.489 15.5128ZM13.3234 15.7231L13.4185 15.5704H13.0699L13.1477 15.7231H13.3234ZM18.3042 15.7979L18.2495 15.628L18.0968 15.5704L18.1746 15.9132L18.3042 15.7979ZM21.594 15.5905L21.4212 15.6482L21.2714 15.6856L21.4039 15.7979L21.5566 15.7605L21.594 15.5905ZM17.8606 15.6078L17.6878 15.7029L17.8606 15.991L18.0104 15.8959L18.0306 15.7058L17.8606 15.6078ZM19.1137 16.2358L19.2088 16.0457L19.1512 15.9333L19.2289 15.7979L19.1166 15.6078L18.9841 15.844H18.8487L18.7536 16.0515L19.1137 16.2358ZM19.5718 15.628L19.3413 15.7231L19.4969 16.1321L19.7244 16.0371L19.7648 15.7893L19.5718 15.628ZM9.43732 15.6453L9.22991 15.7403V15.9679L9.62745 15.7605L9.43732 15.6453ZM14.8387 16.063L14.856 15.9679L14.9799 16.1321L15.0749 15.8844L14.8848 15.677L14.6371 15.7346L14.7494 15.8671L14.8387 16.063ZM17.4832 15.9132L17.5956 15.8728L17.6129 15.7605L17.5178 15.6827L17.4832 15.9132ZM10.8575 15.7605L10.99 15.9333L11.2003 15.893L11.2551 15.7029L10.8575 15.7605ZM21.6056 15.7979L21.5105 16.256L21.7179 16.1782L21.7755 15.9708L21.6056 15.7979ZM11.7361 16.0284L12.0041 16.0659L11.6238 15.7979L11.7361 16.0284ZM15.4062 15.9506L15.5387 15.8181L15.2161 15.893L15.4062 15.9506ZM18.0334 15.844L18.0133 15.9766L17.9585 16.3568L18.2034 16.2617L18.2236 16.0889L18.3734 16.0515L18.2409 16.014L18.0334 15.844ZM21.2858 16.0342L21.4356 15.9938L21.3031 15.9189L21.1907 15.844L21.2858 16.0342ZM21.2282 16.112L21.1706 15.844L21.1129 15.9766L21.2282 16.112ZM8.14675 15.9391L8.12658 16.0716L8.26198 15.8815L8.14675 15.9391ZM11.739 16.279L11.7592 16.0515L11.5691 15.9391L11.739 16.279ZM13.0152 16.0889L13.093 16.184L13.2053 16.1465L13.1477 15.9564L13.0526 15.9737L13.0152 16.0889ZM16.57 16.2041L16.6824 16.3741L16.8927 16.3366L16.8523 15.9737L16.6449 16.014L16.57 16.2041ZM14.2654 16.0889L14.4037 16.1321L14.2712 15.9967L14.2654 16.0889ZM14.7955 16.0342L14.8157 16.1465L14.928 16.184L14.7955 16.0342ZM15.7663 16.7544L15.8614 16.8494L16.0515 16.7947L16.1062 16.5873L15.9737 16.4519L15.7836 16.279L15.3457 16.0515L15.3284 16.2416L15.4811 16.3366L15.386 16.3943H15.5358L15.726 16.3165L15.7663 16.7544ZM10.2526 16.6046L10.4283 16.4202L10.2756 16.1897L10.1028 16.1148L9.92993 16.2099L9.95009 16.4L9.7398 16.5124L9.68506 16.6449L9.78013 16.7572L9.92993 16.74L9.98754 16.6074L10.2526 16.6046ZM20.9113 16.7169L20.8162 16.5441L20.9286 16.4663L20.9113 16.2387L20.7154 16.1321L20.5253 16.2445L20.7413 16.5988L20.6837 16.7486V16.6161H20.4936L20.4561 16.884L20.3035 17.0165L20.4389 16.9992L20.4936 16.9618L20.6837 16.9416V16.7515L20.8191 16.7918L20.9113 16.7169ZM9.43732 16.1321L9.4546 16.3395L9.64473 16.4346L9.43732 16.1321ZM13.2802 16.3395L13.43 16.3021L13.4876 16.1667L13.2802 16.3395ZM13.8564 16.2272L13.7411 16.2646L13.7239 16.3799L13.8564 16.2272ZM20.194 16.3222L20.2343 16.4749L20.3092 16.5873L20.5195 16.5095L20.4533 16.4461L20.2804 16.2387L20.194 16.3222ZM21.4298 16.4346L21.5652 16.5469L21.715 16.4922L21.6056 16.2358L21.4327 16.2934L21.4298 16.4346ZM11.4279 16.7227L11.2551 16.8955L11.3127 17.1433L11.4625 16.9906L11.6152 17.1029L11.8053 17.0655L11.9004 16.7976L11.8226 16.835L11.595 16.7601L11.6123 16.5498L11.4394 16.2848L11.4567 16.5297L11.5719 16.5873L11.4279 16.7227ZM19.0129 16.7486L19.1627 16.6535L19.373 16.7486L19.2578 16.5988L19.3154 16.5037L19.2203 16.3683L19.0878 16.3885L18.9927 16.3309L18.8573 16.521L18.6499 16.5037L18.7277 16.6362L18.9005 16.5988L19.0129 16.7486ZM19.9232 16.8062L20.0384 16.9013L20.1508 16.7111L20.2055 16.5383L20.1882 16.3885L20.0557 16.3309L19.9779 16.5037L19.8656 16.4864L19.6927 16.6564L20.073 16.7515L19.9232 16.8062ZM21.2743 16.5786L21.3492 16.3309L21.0294 16.6362L21.2743 16.5786ZM10.6588 16.5037L10.5061 16.3511L10.2612 16.6391L10.411 16.7745L10.6213 16.6967L10.6588 16.5037ZM18.0507 16.9963L18.6269 16.8235L18.6816 16.6161L18.5318 16.5786L18.3964 16.691L18.2063 16.7284L18.189 16.3885L18.0565 16.426L17.9441 16.4432L17.8491 16.691L18.1141 16.8235L18.0507 16.9963ZM9.95297 16.3885L10.0826 16.4202L9.98754 16.593L9.92993 16.5153L9.95297 16.3885ZM19.5343 16.5585L19.5545 16.426L19.4018 16.5988L19.5343 16.5585ZM8.44923 16.7688L8.63936 16.6535V16.4202L8.44923 16.7688ZM9.07435 16.5585L8.82948 16.4634L8.92455 16.5786L9.07435 16.5585ZM15.2679 17.1116H14.8762L15.0864 17.2239L15.2679 17.1116L15.3054 17.2844L15.363 17.0943L15.533 17.1519L15.5906 16.9618L15.3832 16.8465L15.2881 16.619L15.0404 16.6017L14.8906 16.7918L15.2679 17.1116ZM21.5796 17.1116L21.692 16.9214L21.5883 16.7083L21.5796 17.1116ZM19.4306 16.9214L19.3759 17.0165L19.5833 17.3046L19.8109 17.1922L19.9059 16.9445L19.736 16.7371L19.5833 16.8725L19.4306 16.9214ZM9.98178 16.7486L9.7542 16.7889L9.65914 16.9963L9.80893 17.1288L9.99906 17.2642L10.2295 17.1692L10.267 16.9214L10.1143 16.9387L9.98178 16.7486ZM9.03114 16.9387L9.1262 17.1116H9.33361L9.44596 16.9387L9.12332 16.7486L9.03114 16.9387ZM14.735 16.8638H14.5823L14.6975 17.0136L14.8675 16.9963L14.7724 16.9589L14.735 16.8638ZM13.9255 16.9963L13.7757 16.9589L13.9831 17.1288L13.9255 16.9963ZM19.059 16.9791H18.9265L19.1166 17.0914L19.059 16.9791ZM8.37433 17.0165L8.50684 17.2066L8.54717 17.1116L8.48956 17.0165H8.37433ZM18.9841 17.3766L19.0388 17.2037L18.9063 17.0712L18.9841 17.3766ZM15.9017 17.0885L15.8066 17.1836L15.847 17.3161L16.0371 17.126L15.9017 17.0885ZM21.6459 17.7713L21.7006 17.7338L21.9484 17.6215L21.9858 17.3535L21.7582 17.2009L21.5854 17.2959L21.3578 17.3535L21.2224 17.2959L21.0726 17.3737L21.1677 17.3161L21.0294 17.1288L20.822 17.1692L20.5915 17.4918L20.4965 17.7799L20.3063 17.8922L20.3265 18.0824L20.2113 18.0075L20.0788 18.1573L19.9837 18.1976L19.9664 18.3301L19.831 18.2725L19.6985 18.3877L19.5862 18.3301L19.396 18.4626L19.5458 18.6528L19.396 18.7478L19.4335 18.8631L19.9261 18.7478L19.9088 18.9783L19.736 18.9207L19.6611 18.961L19.6783 19.1511L19.5055 19.3585L19.4104 19.3182L19.2578 19.1857L19.3931 18.9178L19.301 18.8803L19.0705 19.0705L18.7104 18.8631L18.7277 19.033L18.6154 18.8054L18.7853 18.7882H18.938L19.0158 18.6758L19.1656 18.6556L19.2434 18.4281L18.9409 18.4655L19.0359 18.333L18.9409 18.3704L18.8285 18.1256L18.961 18.1083L19.0734 18.163L19.1886 18.1083V17.9729L19.0734 17.8231L19.3413 17.7453L19.3816 17.8404L19.4767 17.8577L19.4565 17.9527L19.6668 17.8951L19.8742 17.9729L20.024 17.8404L19.7216 17.728L19.7619 17.6128L19.5516 17.4429L19.5141 17.5926L19.3413 17.3852L19.2088 17.3478L19.0359 17.3075L19.1483 17.4198L19.0532 17.4025L18.9207 17.6099V17.7626L18.8256 17.7453L18.9034 17.5926L18.8256 17.4429V17.5552L18.7248 17.4717L18.6989 17.8606L18.794 17.9729L18.7363 18.068L18.6989 18.2754L18.6038 18.7133L18.3734 18.6556L18.4684 18.4655L18.4857 18.5807L18.5635 18.2927L18.7248 17.9297L18.5347 17.9671L18.4367 18.1486L18.5491 18.3013L18.359 18.2062L18.1516 18.3186L18.1688 18.5462L18.359 18.6585L18.2639 18.6211L18.3215 18.8285L18.4339 18.8861L18.3388 18.8688L18.2812 19.0013L18.1487 18.9552L17.996 19.105V19.3355L17.8635 19.4853L17.9182 19.6927L18.0911 19.638L18.1688 19.7503L18.2639 19.5775L18.0565 19.3326L18.2841 19.445L18.552 19.4622L18.647 19.4248V19.3009L18.7421 19.1108L18.9149 19.2635L19.2549 19.2059L19.275 19.3009L19.0849 19.4738L19.3125 19.4162L19.5026 19.4939L19.3298 19.5516L19.2923 19.7417L19.4825 19.759L19.4047 19.9491L19.6726 19.8915L19.7504 19.6466L19.6553 19.5343L19.7302 19.3989L19.7504 19.3816L19.9002 19.6092L19.7878 19.6869L19.7043 19.8771L19.5919 19.9174L19.5746 20.0125L19.3442 19.9549L19.4594 20.0672L19.5718 20.0298V20.1651L19.9693 19.9001L20.1018 20.0499L20.2919 20.0125L20.4072 19.8223L20.3121 19.6869L20.2545 19.4968L20.3668 19.4018L20.5195 19.517L20.6924 19.4392L20.5771 19.3269L20.7298 19.2692L20.4417 18.9063L20.6146 18.8112L20.7644 18.7939L20.7471 18.984L20.9948 18.9466L21.0899 18.984L20.9372 18.9668L20.8249 19.0993L20.8825 19.252L20.9948 19.2692L20.9372 19.4421L20.9948 19.5544H20.8422L20.9776 19.8223L20.6751 19.8771L20.7903 19.7071L20.6952 19.7618L20.6175 19.9145L20.5224 19.952L20.4648 20.047L20.5224 20.2544L20.3496 20.1997L20.4619 20.1047L20.4533 19.9635L20.2631 20.1363L20.0557 20.2141L20.0154 20.4042L19.9203 20.4215L19.8454 20.554L19.9405 20.4993L19.9952 20.6318L20.0528 20.5368L20.0125 20.4417L20.1854 20.5944H20.2804L20.0903 20.6318L20.1076 20.8623L19.9174 20.7269L19.71 20.8392V21.0697L20.0096 21.0294L19.9923 20.917L20.1047 20.8623L20.0874 20.9948L20.2603 20.8623L20.1479 21.0697L20.5829 20.8796L20.773 20.6894L20.7356 20.8392L20.6578 20.8594L20.5627 21.0294L20.4129 21.1071L20.5627 21.2022L20.4504 21.2973L20.8306 21.2598L20.9632 20.9919L21.2311 21.28L21.1763 21.0524L21.4212 20.9948L21.5307 21.3174L21.666 21.1676L21.6833 20.9775L21.5105 20.8997L21.5278 20.652L21.5681 20.7471L21.7179 20.7096L21.813 20.6923L21.8907 20.4446L21.6459 20.6347L21.5307 20.652L21.5134 20.5396L21.5537 20.4273L21.4586 20.4446L21.1533 20.3322L21.2109 20.4849L20.9632 20.5396L20.9084 20.4446L20.9459 20.3322L20.9286 20.1594L20.9862 20.047L21.0294 19.9059L21.1418 19.733L21.0755 19.589H21.1706L21.208 19.7791L21.2656 20.0096L21.473 19.8569L21.6056 19.6841V19.4565L21.7409 19.2491L21.3405 19.0762L21.2656 18.9034L21.6056 18.9207L21.4558 18.7478L21.5883 18.7104L21.6056 18.5577L21.6459 18.3676L21.9685 18.2725L21.7957 18.1025L21.5508 18.1774L21.5105 18.2552L21.3031 18.2725L21.1907 18.4079L21.0179 18.6355L20.8105 18.7305L20.6578 18.598L20.58 18.6931L20.6203 18.8256H20.3524L20.2401 19.0733L20.3899 19.2808L20.3726 19.3758L20.1652 19.1655H20.0874L19.9923 19.2606L19.9751 19.0301L20.0528 19.203L20.0701 19.0532L20.2228 19.0705L20.1277 18.8631L20.1076 18.7853L20.0903 18.5548L20.1681 18.4598H20.3409L20.3006 18.2149L20.3207 18.0795L20.4907 18.1573L20.4533 18.042L20.6261 18.0248L20.6837 17.8894L20.7788 17.9844L20.9487 17.8145V17.7741L21.064 17.6791L20.9487 17.8145L20.9891 17.9268L21.1965 17.7914L21.1389 17.9268L21.2916 17.8145L21.3866 17.7741L21.3693 17.8692L21.5595 17.9095L21.5018 18.0795L21.6545 18.042L21.692 17.8692H21.8043L21.6459 17.7713ZM16.0169 17.4544L16.2071 17.3968L16.2474 17.1893L16.0169 17.4544ZM18.2236 17.247L18.3186 17.3968L18.431 17.3795L18.4684 17.2671L18.2236 17.247ZM15.2939 17.2642L15.1815 17.414L15.2362 17.5869L15.4264 17.6042L15.2939 17.2642ZM20.2199 17.3766L20.1047 17.2988V17.5725L20.2199 17.5149V17.3766ZM11.0361 17.3593L10.9238 17.6618L11.0736 17.5494L11.0361 17.3593ZM10.5032 17.4371L10.3534 17.5869L10.6933 17.4918L10.5032 17.4371ZM20.2775 17.9297L20.2401 17.5091L20.145 17.7396L20.2775 17.9297ZM15.6165 17.6243L15.6338 17.7741L15.7692 17.8145L15.7289 17.5264L15.6165 17.6243ZM18.4367 17.8606L18.359 17.9556L18.5491 17.8778L18.5894 17.6704L18.4944 17.7828L18.4742 17.633L18.2668 17.8606H18.4367ZM14.5391 18.0507L14.7667 18.163L14.9971 18.0305L14.7494 17.6503L14.5218 17.7828L14.5391 18.0507ZM18.0565 17.6531L17.8289 17.6704L17.7338 17.8778L17.8664 18.0305L17.9038 18.2581L18.0767 17.8231L17.9038 17.9556L18.0565 17.6531ZM10.2987 17.8433L10.3937 18.0334L10.6242 17.6906L10.4168 17.6733L10.2987 17.8433ZM15.2823 18.0334L15.605 18.0709L15.6453 17.8807L15.4926 17.7684L15.3025 17.8462L15.2823 18.0334ZM19.0273 17.9383L18.8372 17.898L18.9322 17.8231L19.0273 17.9383ZM21.3088 18.2062L21.3261 18.0536L21.1936 17.9412L21.0294 18.1486L21.1619 18.261L21.3088 18.2062ZM11.6123 17.996L11.3444 18.0161V18.1486L11.4798 18.2264L11.6123 18.1313V17.996ZM18.238 18.2264L18.3907 17.996L17.9701 18.2062L18.238 18.2264ZM19.8166 18.2811L19.8339 18.1112L19.8714 18.0161L19.7388 18.0334L19.5862 18.0881L19.5487 18.261L19.6438 18.2437L19.8166 18.2811ZM9.26448 18.0536L9.4546 18.5116L9.6044 18.3042L9.50934 18.0737L9.26448 18.0536ZM20.7471 18.0536L20.557 18.1659L20.7298 18.261L20.9372 18.3964L20.9574 18.1659L20.7471 18.0536ZM9.21838 18.4367L9.29616 18.3042L9.21838 18.1486H9.0657L8.98793 18.284L9.21838 18.4367ZM11.7448 18.3993L11.595 18.5894L11.9868 18.4367L11.7448 18.3993ZM9.71099 18.5894L9.90112 18.5491L9.79453 18.3849L9.69947 18.4598L9.71099 18.5894ZM18.9841 18.8976L19.2491 18.8803L19.1944 18.768H19.059L18.9841 18.8976ZM9.18958 19.5631L9.37971 19.5055L9.41715 19.3153L9.21838 19.2404L9.0657 19.2577L8.98793 19.3902L9.10315 19.4853L9.18958 19.5631ZM18.9841 19.6754L19.154 19.5429L19.0129 19.5256L18.9956 19.2779L18.8804 19.6409L18.9841 19.6754ZM20.7701 19.3124L20.6203 19.3528L20.9228 19.4853L20.8854 19.4075L20.7701 19.3124ZM9.99042 19.7359L10.1633 19.9433L10.3361 19.4507L10.0884 19.4882L9.99042 19.7359ZM18.4886 19.5458L18.3762 19.6005L18.4886 19.8108L18.6038 19.733V19.589L18.4886 19.5458ZM19.0129 19.9433L19.0907 19.8108L19.0331 19.6754L18.8602 19.9433H19.0129ZM20.2314 19.8483L19.9837 19.8857L19.9664 19.7359L20.1565 19.7907L20.2891 19.6783L20.2314 19.8483ZM11.4855 19.6956L11.4452 19.7907L11.5028 19.8857L11.6152 19.8684L11.6728 19.7734L11.4855 19.6956ZM19.1281 20.724L18.9754 20.9314L19.1483 20.9718L19.2434 20.8767L19.736 20.6866L19.5458 20.5137L19.2808 20.6088L19.2606 20.7816L19.1857 20.6693L19.1656 20.554L19.0129 20.5339L19.2405 20.1363L19.3557 20.0413L19.2981 19.8339L19.2606 19.9116L19.1454 19.7215L19.0907 19.8339L19.2405 20.0067L19.1454 20.1191L19.1281 19.9664L18.8055 20.024L18.8228 20.2141L18.9754 20.5166L18.9553 20.5742L18.8055 20.6491V20.8392L18.9553 20.5742L19.1281 20.724ZM11.9493 19.8771L11.739 19.7647L11.5489 20.1277L11.7592 20.2228L11.9493 20.1104V19.8771ZM18.794 19.9174L18.5837 19.8022L18.3734 20.1651L18.6038 20.2804L18.8112 20.1651L18.794 19.9174ZM20.7413 20.1651L20.8537 20.0701L20.9315 20.1651H20.7413ZM19.5228 20.4532L19.7302 20.5483L19.6351 20.4158L19.9405 20.2804L19.6726 20.2055L19.5775 20.3178L19.4825 20.2055L19.5228 20.4532ZM21.692 20.4532L21.7093 20.3582L21.5364 20.3409L21.692 20.4532ZM18.3273 20.4532L18.212 20.4705L18.3474 20.6606L18.3849 20.5483L18.3273 20.4532ZM11.7966 20.7816L11.9868 20.6866L12.0041 20.4791L11.6238 20.6491L11.7966 20.7816ZM18.7104 21.1993V21.0668L18.8055 20.7038L18.6528 20.8565L18.6701 20.9516L18.5376 20.8738L18.6154 20.7211L18.5001 20.6837L18.4051 20.7384L18.5001 20.8911L18.5088 21.3174L18.7104 21.1993ZM19.7158 20.8191L19.7561 20.6866L19.566 20.8594L19.7158 20.8191ZM17.9557 21.0294L18.0104 21.2598L18.2581 21.3376L18.431 21.1648L18.3734 20.9343L18.2783 20.9545L18.261 20.8392L18.0709 20.8018L17.9384 20.9343L17.9557 21.0294ZM20.9804 20.9746L21.0553 20.8796L21.1504 21.0294L20.9804 20.9746ZM19.6495 20.9746L19.4767 20.9919L19.6668 21.0697L19.6495 20.9746ZM20.1796 21.3549H20.2747L20.3697 21.2195L20.2919 21.2397L19.9895 21.1446L20.0845 21.0294L19.8771 21.182L19.9146 21.3347L20.1796 21.3549ZM19.2462 21.4327L19.3816 21.3751L19.4767 21.2224L19.3816 21.0524L19.1339 21.0697L19.0964 21.2425V21.3376L19.2462 21.4327Z" fill="white"/>
</g>
<defs>
<clipPath id="clip0_43_2951">
<rect width="30" height="30" fill="white"/>
</clipPath>
</defs>
</svg>
